<svg width="114" height="114" viewBox="0 0 114 114" fill="none" xmlns="http://www.w3.org/2000/svg">
<path d="M7.125 96.1875H106.875" stroke="black" stroke-width="2" stroke-linecap="round" stroke-linejoin="round"/>
<path d="M64.125 96.1875V17.8125C64.125 16.8677 63.7497 15.9615 63.0816 15.2934C62.4135 14.6253 61.5073 14.25 60.5625 14.25H17.8125C16.8677 14.25 15.9615 14.6253 15.2934 15.2934C14.6253 15.9615 14.25 16.8677 14.25 17.8125V96.1875" stroke="black" stroke-width="2" stroke-linecap="round" stroke-linejoin="round"/>
<path d="M99.75 96.1875V46.3125C99.75 45.3677 99.3747 44.4615 98.7066 43.7934C98.0385 43.1253 97.1323 42.75 96.1875 42.75H64.125" stroke="black" stroke-width="2" stroke-linecap="round" stroke-linejoin="round"/>
<path d="M28.5 32.0625H42.75" stroke="black" stroke-width="2" stroke-linecap="round" stroke-linejoin="round"/>
<path d="M35.625 60.5625H49.875" stroke="black" stroke-width="2" stroke-linecap="round" stroke-linejoin="round"/>
<path d="M28.5 78.375H42.75" stroke="black" stroke-width="2" stroke-linecap="round" stroke-linejoin="round"/>
<path d="M78.375 78.375H85.5" stroke="black" stroke-width="2" stroke-linecap="round" stroke-linejoin="round"/>
<path d="M78.375 60.5625H85.5" stroke="black" stroke-width="2" stroke-linecap="round" stroke-linejoin="round"/>
</svg>
