<svg width="114" height="114" viewBox="0 0 114 114" fill="none" xmlns="http://www.w3.org/2000/svg">
<path d="M107.187 54.2391L96.1875 59.7164L81.9375 32.4633L93.0703 26.8969C93.8977 26.4752 94.8582 26.3977 95.7424 26.6813C96.6267 26.9649 97.3629 27.5867 97.7906 28.411L108.745 49.3852C108.967 49.805 109.103 50.2651 109.145 50.7382C109.187 51.2114 109.134 51.6881 108.988 52.1404C108.843 52.5926 108.609 53.0113 108.3 53.3717C107.99 53.7321 107.612 54.027 107.187 54.2391V54.2391Z" stroke="black" stroke-width="2" stroke-linecap="round" stroke-linejoin="round"/>
<path d="M17.8125 59.2711L6.81326 53.7492C6.38974 53.5417 6.01229 53.2511 5.70334 52.8947C5.3944 52.5383 5.16026 52.1235 5.01486 51.6748C4.86945 51.2262 4.81576 50.7528 4.85695 50.283C4.89815 49.8131 5.0334 49.3564 5.25466 48.9399L16.2094 27.9656C16.6379 27.142 17.3711 26.5181 18.2527 26.227C19.1344 25.9359 20.0949 26.0005 20.9297 26.4071L32.0625 31.9735L17.8125 59.2711Z" stroke="black" stroke-width="2" stroke-linecap="round" stroke-linejoin="round"/>
<path d="M96.1875 59.7163L89.0625 68.0882L72.675 84.4757C72.2284 84.8933 71.6872 85.1966 71.0978 85.3594C70.5084 85.5223 69.8883 85.5399 69.2906 85.4108L43.4625 78.9538C42.9907 78.8223 42.5511 78.5949 42.1711 78.2858L17.8125 59.271" stroke="black" stroke-width="2" stroke-linecap="round" stroke-linejoin="round"/>
<path d="M89.0625 68.0884L69.4688 53.8384L63.7688 58.1134C61.2993 59.9565 58.3003 60.9523 55.2188 60.9523C52.1373 60.9523 49.1383 59.9565 46.6688 58.1134L44.2641 56.2876C43.8575 55.9785 43.5211 55.5865 43.2773 55.1376C43.0336 54.6887 42.8879 54.1932 42.85 53.6838C42.8121 53.1743 42.8829 52.6627 43.0576 52.1827C43.2322 51.7027 43.5069 51.2652 43.8633 50.8993L61.3196 33.4876C61.6475 33.1613 62.0365 32.9029 62.4644 32.7272C62.8923 32.5514 63.3507 32.4618 63.8133 32.4634H81.9375" stroke="black" stroke-width="2" stroke-linecap="round" stroke-linejoin="round"/>
<path d="M32.3297 31.9735L55.1742 25.2938C55.986 25.061 56.854 25.1241 57.6235 25.4719L73.0313 32.4633" stroke="black" stroke-width="2" stroke-linecap="round" stroke-linejoin="round"/>
<path d="M49.875 94.807L36.4711 91.4227C35.9249 91.2993 35.4191 91.0387 35.0016 90.6656L24.9375 81.9375" stroke="black" stroke-width="2" stroke-linecap="round" stroke-linejoin="round"/>
</svg>
