<svg width="114" height="114" viewBox="0 0 114 114" fill="none" xmlns="http://www.w3.org/2000/svg">
<path d="M24.2695 89.7305C20.1727 85.6336 22.8891 77.0391 20.7961 72.007C18.7031 66.975 10.6875 62.5664 10.6875 57C10.6875 51.4336 18.6141 47.2031 20.7961 41.993C22.9781 36.7828 20.1727 28.3664 24.2695 24.2695C28.3664 20.1727 36.9609 22.8891 41.993 20.7961C47.025 18.7031 51.4336 10.6875 57 10.6875C62.5664 10.6875 66.7969 18.6141 72.007 20.7961C77.2172 22.9781 85.6336 20.1727 89.7305 24.2695C93.8273 28.3664 91.1109 36.9609 93.2039 41.993C95.2969 47.025 103.312 51.4336 103.312 57C103.312 62.5664 95.3859 66.7969 93.2039 72.007C91.0219 77.2172 93.8273 85.6336 89.7305 89.7305C85.6336 93.8273 77.0391 91.1109 72.007 93.2039C66.975 95.2969 62.5664 103.312 57 103.312C51.4336 103.312 47.2031 95.3859 41.993 93.2039C36.7828 91.0219 28.3664 93.8273 24.2695 89.7305Z" stroke="#F9AC66" stroke-width="2" stroke-linecap="round" stroke-linejoin="round"/>
<path d="M57 35.625V60.5625" stroke="#F9AC66" stroke-width="2" stroke-linecap="round" stroke-linejoin="round"/>
<path d="M57 81.9375C59.9513 81.9375 62.3438 79.545 62.3438 76.5938C62.3438 73.6425 59.9513 71.25 57 71.25C54.0487 71.25 51.6562 73.6425 51.6562 76.5938C51.6562 79.545 54.0487 81.9375 57 81.9375Z" fill="#F9AC66"/>
</svg>
