<svg width="114" height="114" viewBox="0 0 114 114" fill="none" xmlns="http://www.w3.org/2000/svg">
<path d="M23.0672 54.2835C22.5409 53.3712 21.84 52.5715 21.0046 51.9301C20.1693 51.2887 19.2158 50.8181 18.1985 50.5452C17.1813 50.2722 16.1203 50.2024 15.076 50.3395C14.0318 50.4766 13.0248 50.8181 12.1125 51.3444C11.2002 51.8707 10.4005 52.5716 9.75911 53.4069C9.11768 54.2423 8.64708 55.1958 8.37416 56.2131C8.10125 57.2303 8.03136 58.2913 8.1685 59.3356C8.30564 60.3798 8.64711 61.3868 9.17342 62.2991L25.65 90.8436C29.9453 98.1207 36.9398 103.408 45.1125 105.556C53.2852 107.703 61.9754 106.538 69.2933 102.312C76.6113 98.0871 81.9654 91.1437 84.1914 82.992C86.4174 74.8403 85.3353 66.1393 81.1805 58.7811L73.6101 45.6444C72.482 43.9429 70.7471 42.7361 68.7595 42.27C66.7718 41.804 64.6813 42.1139 62.9144 43.1366C61.1475 44.1592 59.8374 45.8175 59.2513 47.7731C58.6653 49.7287 58.8476 51.8342 59.7609 53.66" stroke="black" stroke-width="2" stroke-linecap="round" stroke-linejoin="round"/>
<path d="M47.6484 64.7931L30.7266 35.4915C30.2003 34.5792 29.4994 33.7796 28.664 33.1381C27.8287 32.4967 26.8752 32.0261 25.8579 31.7532C24.8407 31.4803 23.7797 31.4104 22.7354 31.5475C21.6912 31.6847 20.6842 32.0261 19.7719 32.5524C18.8596 33.0788 18.0599 33.7796 17.4185 34.615C16.7771 35.4503 16.3065 36.4039 16.0336 37.4211C15.7606 38.4383 15.6908 39.4994 15.8279 40.5436C15.965 41.5879 16.3065 42.5949 16.8328 43.5071L33.7547 72.8087" stroke="black" stroke-width="2" stroke-linecap="round" stroke-linejoin="round"/>
<path d="M66.8859 66.0399L48.1828 33.6212C47.1199 31.7787 45.3686 30.434 43.3142 29.8828C41.2598 29.3317 39.0706 29.6192 37.2281 30.6821C35.3857 31.745 34.041 33.4963 33.4898 35.5508C32.9386 37.6052 33.2261 39.7944 34.2891 41.6368" stroke="black" stroke-width="2" stroke-linecap="round" stroke-linejoin="round"/>
<path d="M44.0859 30.1477L39.4992 22.1766C38.4363 20.3342 36.685 18.9895 34.6306 18.4383C32.5762 17.8871 30.387 18.1746 28.5445 19.2375C26.7021 20.3005 25.3574 22.0518 24.8062 24.1062C24.255 26.1606 24.5425 28.3498 25.6055 30.1922L26.6742 32.018" stroke="black" stroke-width="2" stroke-linecap="round" stroke-linejoin="round"/>
<path d="M83.7187 85.2775C89.1537 80.356 92.7406 73.7225 93.8828 66.4799C95.0251 59.2373 93.6541 51.8219 89.9977 45.4665L82.4273 32.3743C81.901 31.462 81.2002 30.6624 80.3648 30.0209C79.5295 29.3795 78.5759 28.9089 77.5587 28.636C76.5415 28.3631 75.4804 28.2932 74.4362 28.4303C73.3919 28.5675 72.3849 28.9089 71.4727 29.4353C70.5604 29.9616 69.7607 30.6624 69.1193 31.4978C68.4779 32.3331 68.0073 33.2867 67.7343 34.3039C67.4614 35.3211 67.3915 36.3822 67.5287 37.4264C67.6658 38.4707 68.0073 39.4777 68.5336 40.3899" stroke="black" stroke-width="2" stroke-linecap="round" stroke-linejoin="round"/>
<path d="M69.5578 42.171L56.9555 20.3507C55.8925 18.5082 54.1412 17.1635 52.0868 16.6123C50.0324 16.0612 47.8432 16.3487 46.0008 17.4116C44.1584 18.4745 42.8136 20.2258 42.2625 22.2802C41.7113 24.3346 41.9988 26.5239 43.0617 28.3663" stroke="black" stroke-width="2" stroke-linecap="round" stroke-linejoin="round"/>
<path d="M78.7312 5.03198L76.9055 11.8898" stroke="black" stroke-width="2" stroke-linecap="round" stroke-linejoin="round"/>
<path d="M92.2242 11.311L88.1273 17.1446" stroke="black" stroke-width="2" stroke-linecap="round" stroke-linejoin="round"/>
<path d="M102.689 21.7759L96.8555 25.8728" stroke="black" stroke-width="2" stroke-linecap="round" stroke-linejoin="round"/>
</svg>
