<svg width="114" height="114" viewBox="0 0 114 114" fill="none" xmlns="http://www.w3.org/2000/svg">
<path d="M14.25 57H32.0625L39.1875 46.3125L53.4375 67.6875L60.5625 57H71.25" stroke="black" stroke-width="2" stroke-linecap="round" stroke-linejoin="round"/>
<path d="M12.5133 42.75C12.4688 42.1711 12.4688 41.5477 12.4688 40.9688C12.4688 35.6156 14.3235 30.4278 17.7173 26.288C21.1111 22.1482 25.8345 19.3121 31.0837 18.2622C36.3329 17.2124 41.7837 18.0136 46.5087 20.5297C51.2337 23.0457 54.9411 27.1212 57 32.0625V32.0625C59.0589 27.1212 62.7663 23.0457 67.4913 20.5297C72.2163 18.0136 77.6671 17.2124 82.9163 18.2622C88.1655 19.3121 92.8889 22.1482 96.2827 26.288C99.6765 30.4278 101.531 35.6156 101.531 40.9688C101.531 71.25 57 96.1875 57 96.1875C57 96.1875 39.232 86.2125 26.1398 71.25" stroke="black" stroke-width="2" stroke-linecap="round" stroke-linejoin="round"/>
</svg>
