<?xml version="1.0" encoding="UTF-8"?>
<!DOCTYPE svg PUBLIC "-//W3C//DTD SVG 1.1//EN" "http://www.w3.org/Graphics/SVG/1.1/DTD/svg11.dtd">
<svg xmlns="http://www.w3.org/2000/svg" version="1.1" width="500px" height="500px" style="shape-rendering:geometricPrecision; text-rendering:geometricPrecision; image-rendering:optimizeQuality; fill-rule:evenodd; clip-rule:evenodd" xmlns:xlink="http://www.w3.org/1999/xlink">
<g><path style="opacity:0.408" fill="#e8bb7f" d="M 274.5,107.5 C 273.5,107.5 272.5,107.5 271.5,107.5C 265.827,106.248 260.16,106.248 254.5,107.5C 257.526,105.981 260.859,105.315 264.5,105.5C 268.141,105.315 271.474,105.981 274.5,107.5 Z"/></g>
<g><path style="opacity:0.427" fill="#e6bd65" d="M 274.5,107.5 C 282.732,110.064 288.399,115.398 291.5,123.5C 290.833,123.167 290.167,122.833 289.5,122.5C 287.025,121.313 286.025,119.313 286.5,116.5C 283.244,115.534 280.244,114.201 277.5,112.5C 277.69,110.041 276.69,108.374 274.5,107.5 Z"/></g>
<g><path style="opacity:0.718" fill="#e5b065" d="M 253.5,107.5 C 250.81,109.193 248.81,111.527 247.5,114.5C 245.302,114.12 243.635,114.787 242.5,116.5C 239.105,119.902 235.438,122.902 231.5,125.5C 237.407,117.578 244.74,111.578 253.5,107.5 Z"/></g>
<g><path style="opacity:1" fill="#fb9423" d="M 247.5,114.5 C 249.199,114.34 250.866,114.506 252.5,115C 254.742,116.77 256.408,118.937 257.5,121.5C 255.972,122.309 254.306,122.976 252.5,123.5C 248.708,122.759 245.041,121.759 241.5,120.5C 241.753,122.827 241.086,124.827 239.5,126.5C 238.5,127.833 237.5,127.833 236.5,126.5C 235.06,127.952 233.394,128.952 231.5,129.5C 235.536,125.466 239.202,121.132 242.5,116.5C 243.635,114.787 245.302,114.12 247.5,114.5 Z"/></g>
<g><path style="opacity:1" fill="#f79723" d="M 271.5,107.5 C 277.792,110.393 278.125,114.059 272.5,118.5C 269.974,116.081 268.14,116.747 267,120.5C 263.603,119.01 260.436,119.344 257.5,121.5C 256.408,118.937 254.742,116.77 252.5,115C 250.866,114.506 249.199,114.34 247.5,114.5C 248.81,111.527 250.81,109.193 253.5,107.5C 253.833,107.5 254.167,107.5 254.5,107.5C 260.16,106.248 265.827,106.248 271.5,107.5 Z"/></g>
<g><path style="opacity:1" fill="#f09823" d="M 271.5,107.5 C 272.5,107.5 273.5,107.5 274.5,107.5C 276.69,108.374 277.69,110.041 277.5,112.5C 280.244,114.201 283.244,115.534 286.5,116.5C 286.025,119.313 287.025,121.313 289.5,122.5C 290.72,127.15 290.72,131.817 289.5,136.5C 287.674,136.08 285.674,136.08 283.5,136.5C 283.715,134.821 283.048,133.821 281.5,133.5C 278.281,132.28 276.615,129.947 276.5,126.5C 275.167,126.5 273.833,126.5 272.5,126.5C 272.67,125.178 272.337,124.011 271.5,123C 265.775,122.283 260.109,122.616 254.5,124C 253.748,124.671 253.414,125.504 253.5,126.5C 252.167,126.833 250.833,127.167 249.5,127.5C 250.211,125.97 251.211,124.637 252.5,123.5C 254.306,122.976 255.972,122.309 257.5,121.5C 260.436,119.344 263.603,119.01 267,120.5C 268.14,116.747 269.974,116.081 272.5,118.5C 278.125,114.059 277.792,110.393 271.5,107.5 Z"/></g>
<g><path style="opacity:1" fill="#e1a84b" d="M 281.5,133.5 C 281.433,134.959 281.766,136.292 282.5,137.5C 281.833,137.5 281.167,137.5 280.5,137.5C 280.167,137.5 279.833,137.5 279.5,137.5C 277.136,132.331 273.469,128.164 268.5,125C 263.28,124.017 258.28,124.517 253.5,126.5C 253.414,125.504 253.748,124.671 254.5,124C 260.109,122.616 265.775,122.283 271.5,123C 272.337,124.011 272.67,125.178 272.5,126.5C 273.833,126.5 275.167,126.5 276.5,126.5C 276.615,129.947 278.281,132.28 281.5,133.5 Z"/></g>
<g><path style="opacity:1" fill="#f49119" d="M 252.5,123.5 C 251.211,124.637 250.211,125.97 249.5,127.5C 247.901,129.309 245.901,130.642 243.5,131.5C 242.754,132.736 242.421,134.07 242.5,135.5C 239.163,135.187 236.829,136.52 235.5,139.5C 230.548,140.492 225.548,141.158 220.5,141.5C 223.436,136.895 227.102,132.895 231.5,129.5C 233.394,128.952 235.06,127.952 236.5,126.5C 237.5,127.833 238.5,127.833 239.5,126.5C 241.086,124.827 241.753,122.827 241.5,120.5C 245.041,121.759 248.708,122.759 252.5,123.5 Z"/></g>
<g><path style="opacity:0.733" fill="#daaa66" d="M 231.5,125.5 C 227.199,131.469 222.199,136.802 216.5,141.5C 215.833,141.5 215.167,141.5 214.5,141.5C 220.14,136.195 225.807,130.861 231.5,125.5 Z"/></g>
<g><path style="opacity:0.996" fill="#dea350" d="M 253.5,126.5 C 250.057,129.729 246.39,132.729 242.5,135.5C 242.421,134.07 242.754,132.736 243.5,131.5C 245.901,130.642 247.901,129.309 249.5,127.5C 250.833,127.167 252.167,126.833 253.5,126.5 Z"/></g>
<g><path style="opacity:1" fill="#e38f23" d="M 289.5,122.5 C 290.167,122.833 290.833,123.167 291.5,123.5C 293.325,131.788 292.658,139.788 289.5,147.5C 287.253,148.374 284.92,148.708 282.5,148.5C 282.5,144.833 282.5,141.167 282.5,137.5C 281.766,136.292 281.433,134.959 281.5,133.5C 283.048,133.821 283.715,134.821 283.5,136.5C 285.674,136.08 287.674,136.08 289.5,136.5C 290.72,131.817 290.72,127.15 289.5,122.5 Z"/></g>
<g><path style="opacity:1" fill="#da952d" d="M 242.5,116.5 C 239.202,121.132 235.536,125.466 231.5,129.5C 227.102,132.895 223.436,136.895 220.5,141.5C 219.167,141.5 217.833,141.5 216.5,141.5C 222.199,136.802 227.199,131.469 231.5,125.5C 235.438,122.902 239.105,119.902 242.5,116.5 Z"/></g>
<g><path style="opacity:0.439" fill="#c6a274" d="M 337.5,160.5 C 336.833,160.5 336.167,160.5 335.5,160.5C 335.586,159.504 335.252,158.671 334.5,158C 330.694,157.575 328.86,155.408 329,151.5C 328.329,150.748 327.496,150.414 326.5,150.5C 321.492,145.742 315.492,143.409 308.5,143.5C 305.833,143.5 303.167,143.5 300.5,143.5C 317.066,139.612 329.399,145.279 337.5,160.5 Z"/></g>
<g><path style="opacity:1" fill="#de8423" d="M 235.5,139.5 C 234.859,140.482 234.193,141.482 233.5,142.5C 234.95,143.85 235.617,145.516 235.5,147.5C 232.913,148.816 229.913,149.483 226.5,149.5C 223.5,149.333 220.5,149.167 217.5,149C 215.285,146.758 214.952,144.258 216.5,141.5C 217.833,141.5 219.167,141.5 220.5,141.5C 225.548,141.158 230.548,140.492 235.5,139.5 Z"/></g>
<g><path style="opacity:0.063" fill="#f6cea6" d="M 293.5,131.5 C 294.485,135.634 294.818,139.968 294.5,144.5C 295.5,144.5 296.5,144.5 297.5,144.5C 296.22,145.931 294.553,146.598 292.5,146.5C 293.329,141.547 293.663,136.547 293.5,131.5 Z"/></g>
<g><path style="opacity:1" fill="#c88337" d="M 291.5,123.5 C 293.223,125.78 293.889,128.447 293.5,131.5C 293.663,136.547 293.329,141.547 292.5,146.5C 294.553,146.598 296.22,145.931 297.5,144.5C 298.391,143.89 299.391,143.557 300.5,143.5C 303.167,143.5 305.833,143.5 308.5,143.5C 302.722,143.499 298.055,145.832 294.5,150.5C 291.724,151.089 289.39,152.422 287.5,154.5C 289.44,155.528 291.44,155.528 293.5,154.5C 295.108,152.738 297.108,151.572 299.5,151C 300.337,149.989 300.67,148.822 300.5,147.5C 303.32,147.248 305.986,147.748 308.5,149C 305.352,151.555 301.685,153.055 297.5,153.5C 297.5,154.5 297.5,155.5 297.5,156.5C 306.349,156.174 315.016,156.507 323.5,157.5C 320.833,157.5 318.167,157.5 315.5,157.5C 310.167,157.5 304.833,157.5 299.5,157.5C 293.491,157.666 287.491,157.499 281.5,157C 280.565,154.619 280.232,152.119 280.5,149.5C 280.5,145.5 280.5,141.5 280.5,137.5C 281.167,137.5 281.833,137.5 282.5,137.5C 282.5,141.167 282.5,144.833 282.5,148.5C 284.92,148.708 287.253,148.374 289.5,147.5C 292.658,139.788 293.325,131.788 291.5,123.5 Z"/></g>
<g><path style="opacity:1" fill="#c58035" d="M 242.5,135.5 C 240.873,137.63 239.04,139.63 237,141.5C 236.616,143.197 236.782,144.863 237.5,146.5C 238.012,149.848 239.845,152.181 243,153.5C 243.494,155.134 243.66,156.801 243.5,158.5C 239.869,158.032 236.535,158.699 233.5,160.5C 230.499,159.19 227.833,157.523 225.5,155.5C 221.898,153.882 218.565,154.215 215.5,156.5C 215.511,154.983 216.177,153.816 217.5,153C 221.733,152.925 225.733,152.092 229.5,150.5C 231.782,151.223 234.116,151.557 236.5,151.5C 236.768,149.901 236.434,148.568 235.5,147.5C 235.617,145.516 234.95,143.85 233.5,142.5C 234.193,141.482 234.859,140.482 235.5,139.5C 236.829,136.52 239.163,135.187 242.5,135.5 Z"/></g>
<g><path style="opacity:1" fill="#cb7f2c" d="M 308.5,143.5 C 315.492,143.409 321.492,145.742 326.5,150.5C 327.369,152.717 327.702,155.05 327.5,157.5C 326.167,157.5 324.833,157.5 323.5,157.5C 315.016,156.507 306.349,156.174 297.5,156.5C 297.5,155.5 297.5,154.5 297.5,153.5C 301.685,153.055 305.352,151.555 308.5,149C 305.986,147.748 303.32,147.248 300.5,147.5C 300.67,148.822 300.337,149.989 299.5,151C 297.108,151.572 295.108,152.738 293.5,154.5C 291.44,155.528 289.44,155.528 287.5,154.5C 289.39,152.422 291.724,151.089 294.5,150.5C 298.055,145.832 302.722,143.499 308.5,143.5 Z"/></g>
<g><path style="opacity:1" fill="#c87e2b" d="M 214.5,141.5 C 215.167,141.5 215.833,141.5 216.5,141.5C 214.952,144.258 215.285,146.758 217.5,149C 220.5,149.167 223.5,149.333 226.5,149.5C 229.913,149.483 232.913,148.816 235.5,147.5C 236.434,148.568 236.768,149.901 236.5,151.5C 234.116,151.557 231.782,151.223 229.5,150.5C 225.733,152.092 221.733,152.925 217.5,153C 216.177,153.816 215.511,154.983 215.5,156.5C 212.925,157.728 210.592,159.395 208.5,161.5C 207.915,159.135 206.748,157.135 205,155.5C 204.51,154.207 204.343,152.873 204.5,151.5C 207.5,151.833 208.833,150.5 208.5,147.5C 212.632,147.763 214.632,145.763 214.5,141.5 Z"/></g>
<g><path style="opacity:1" fill="#b88c65" d="M 279.5,137.5 C 279.833,137.5 280.167,137.5 280.5,137.5C 280.5,141.5 280.5,145.5 280.5,149.5C 279.188,155.498 275.855,160.165 270.5,163.5C 269.833,163.5 269.167,163.5 268.5,163.5C 276.566,156.701 280.232,148.035 279.5,137.5 Z"/></g>
<g><path style="opacity:1" fill="#ad7936" d="M 326.5,150.5 C 327.496,150.414 328.329,150.748 329,151.5C 328.86,155.408 330.694,157.575 334.5,158C 335.252,158.671 335.586,159.504 335.5,160.5C 335.5,162.167 335.5,163.833 335.5,165.5C 332.167,165.5 328.833,165.5 325.5,165.5C 323.52,162.893 320.853,161.226 317.5,160.5C 316.807,159.482 316.141,158.482 315.5,157.5C 318.167,157.5 320.833,157.5 323.5,157.5C 324.833,157.5 326.167,157.5 327.5,157.5C 327.702,155.05 327.369,152.717 326.5,150.5 Z"/></g>
<g><path style="opacity:1" fill="#ae7b3a" d="M 214.5,141.5 C 214.632,145.763 212.632,147.763 208.5,147.5C 208.833,150.5 207.5,151.833 204.5,151.5C 204.343,152.873 204.51,154.207 205,155.5C 206.748,157.135 207.915,159.135 208.5,161.5C 210.592,159.395 212.925,157.728 215.5,156.5C 212.765,159.561 210.098,162.561 207.5,165.5C 205.77,166.026 204.436,167.026 203.5,168.5C 201.5,168.5 199.5,168.5 197.5,168.5C 197.037,165.518 196.704,162.518 196.5,159.5C 197.635,157.787 199.302,157.12 201.5,157.5C 201.5,155.833 201.5,154.167 201.5,152.5C 204.948,147.713 209.281,144.046 214.5,141.5 Z"/></g>
<g><path style="opacity:0.961" fill="#b1875d" d="M 225.5,155.5 C 226.167,157.167 226.833,158.833 227.5,160.5C 225.852,159.19 224.186,157.857 222.5,156.5C 217.916,158.755 213.916,161.755 210.5,165.5C 209.5,165.5 208.5,165.5 207.5,165.5C 210.098,162.561 212.765,159.561 215.5,156.5C 218.565,154.215 221.898,153.882 225.5,155.5 Z"/></g>
<g><path style="opacity:1" fill="#ae7836" d="M 280.5,149.5 C 280.232,152.119 280.565,154.619 281.5,157C 287.491,157.499 293.491,157.666 299.5,157.5C 297.708,158.309 295.708,158.809 293.5,159C 291.963,160.11 291.297,161.61 291.5,163.5C 291.167,164.5 290.5,165.167 289.5,165.5C 283.143,165.476 276.81,165.81 270.5,166.5C 270.5,165.5 270.5,164.5 270.5,163.5C 275.855,160.165 279.188,155.498 280.5,149.5 Z"/></g>
<g><path style="opacity:1" fill="#a6783b" d="M 237.5,146.5 C 243.5,151.833 249.167,157.5 254.5,163.5C 254.5,164.5 254.5,165.5 254.5,166.5C 251.15,166.335 247.817,166.502 244.5,167C 243.663,168.011 243.33,169.178 243.5,170.5C 238.44,170.442 236.107,167.775 236.5,162.5C 233.308,162.595 230.308,161.929 227.5,160.5C 226.833,158.833 226.167,157.167 225.5,155.5C 227.833,157.523 230.499,159.19 233.5,160.5C 236.535,158.699 239.869,158.032 243.5,158.5C 243.66,156.801 243.494,155.134 243,153.5C 239.845,152.181 238.012,149.848 237.5,146.5 Z"/></g>
<g><path style="opacity:1" fill="#93723d" d="M 196.5,159.5 C 196.704,162.518 197.037,165.518 197.5,168.5C 199.5,168.5 201.5,168.5 203.5,168.5C 201.15,170.213 200.15,172.547 200.5,175.5C 197.482,175.296 194.482,174.963 191.5,174.5C 191.5,172.167 191.5,169.833 191.5,167.5C 192.833,167.5 194.167,167.5 195.5,167.5C 195.194,164.615 195.527,161.948 196.5,159.5 Z"/></g>
<g><path style="opacity:1" fill="#947342" d="M 335.5,160.5 C 336.167,160.5 336.833,160.5 337.5,160.5C 339.915,163.34 341.248,166.673 341.5,170.5C 341.5,172.167 341.5,173.833 341.5,175.5C 341.167,175.5 340.833,175.5 340.5,175.5C 335.716,174.583 331.05,174.25 326.5,174.5C 325.105,173.352 325.272,172.352 327,171.5C 328.183,172.731 329.349,172.731 330.5,171.5C 328.955,170.548 327.288,170.215 325.5,170.5C 325.5,168.833 325.5,167.167 325.5,165.5C 328.833,165.5 332.167,165.5 335.5,165.5C 335.5,163.833 335.5,162.167 335.5,160.5 Z"/></g>
<g><path style="opacity:1" fill="#997644" d="M 227.5,160.5 C 230.308,161.929 233.308,162.595 236.5,162.5C 236.107,167.775 238.44,170.442 243.5,170.5C 243.33,169.178 243.663,168.011 244.5,167C 247.817,166.502 251.15,166.335 254.5,166.5C 254.5,165.5 254.5,164.5 254.5,163.5C 256.749,164.08 258.415,165.413 259.5,167.5C 258.233,166.913 257.233,166.913 256.5,167.5C 257.374,169.747 257.708,172.08 257.5,174.5C 253.833,174.5 250.167,174.5 246.5,174.5C 244.079,174.122 241.746,173.455 239.5,172.5C 235.167,168.833 231.167,164.833 227.5,160.5 Z"/></g>
<g><path style="opacity:1" fill="#987649" d="M 268.5,163.5 C 269.167,163.5 269.833,163.5 270.5,163.5C 270.5,164.5 270.5,165.5 270.5,166.5C 276.81,165.81 283.143,165.476 289.5,165.5C 286.833,168.833 283.833,171.833 280.5,174.5C 278.097,174.448 275.764,174.781 273.5,175.5C 268.581,176.628 264.915,175.128 262.5,171C 261.551,170.383 260.718,170.549 260,171.5C 259.51,170.207 259.343,168.873 259.5,167.5C 260.738,168.412 262.072,168.579 263.5,168C 265.037,166.293 266.704,164.793 268.5,163.5 Z"/></g>
<g><path style="opacity:1" fill="#a68157" d="M 299.5,157.5 C 304.833,157.5 310.167,157.5 315.5,157.5C 316.141,158.482 316.807,159.482 317.5,160.5C 320.853,161.226 323.52,162.893 325.5,165.5C 325.5,167.167 325.5,168.833 325.5,170.5C 327.288,170.215 328.955,170.548 330.5,171.5C 329.349,172.731 328.183,172.731 327,171.5C 325.272,172.352 325.105,173.352 326.5,174.5C 325.662,174.842 325.328,175.508 325.5,176.5C 325.784,178.415 325.451,180.081 324.5,181.5C 323.668,165.496 315.334,158.329 299.5,160C 296.733,161.083 294.067,162.25 291.5,163.5C 291.297,161.61 291.963,160.11 293.5,159C 295.708,158.809 297.708,158.309 299.5,157.5 Z"/></g>
<g><path style="opacity:1" fill="#896548" d="M 259.5,167.5 C 259.343,168.873 259.51,170.207 260,171.5C 260.718,170.549 261.551,170.383 262.5,171C 264.915,175.128 268.581,176.628 273.5,175.5C 273.892,178.722 273.392,181.722 272,184.5C 265.376,183.199 258.71,183.199 252,184.5C 247.022,183.036 245.189,179.703 246.5,174.5C 250.167,174.5 253.833,174.5 257.5,174.5C 257.708,172.08 257.374,169.747 256.5,167.5C 257.233,166.913 258.233,166.913 259.5,167.5 Z"/></g>
<g><path style="opacity:1" fill="#886445" d="M 326.5,174.5 C 331.05,174.25 335.716,174.583 340.5,175.5C 339.766,176.878 339.099,178.378 338.5,180C 336.04,180.981 333.54,181.815 331,182.5C 327.555,181.892 325.722,179.892 325.5,176.5C 325.328,175.508 325.662,174.842 326.5,174.5 Z"/></g>
<g><path style="opacity:1" fill="#8c7451" d="M 201.5,152.5 C 201.5,154.167 201.5,155.833 201.5,157.5C 199.302,157.12 197.635,157.787 196.5,159.5C 195.527,161.948 195.194,164.615 195.5,167.5C 194.167,167.5 192.833,167.5 191.5,167.5C 191.5,169.833 191.5,172.167 191.5,174.5C 194.482,174.963 197.482,175.296 200.5,175.5C 200.15,172.547 201.15,170.213 203.5,168.5C 204.436,167.026 205.77,166.026 207.5,165.5C 208.5,165.5 209.5,165.5 210.5,165.5C 206.397,170.055 203.064,175.055 200.5,180.5C 195.841,180.49 191.174,181.49 186.5,183.5C 185.261,183.058 184.261,182.391 183.5,181.5C 186.218,169.785 192.218,160.119 201.5,152.5 Z"/></g>
<g><path style="opacity:0.918" fill="#9e8f84" d="M 341.5,170.5 C 342.647,174.646 342.814,178.98 342,183.5C 341.495,186.865 340.328,189.865 338.5,192.5C 338.5,192.167 338.5,191.833 338.5,191.5C 337.588,190.262 337.421,188.928 338,187.5C 338.333,188.167 338.667,188.833 339,189.5C 340.152,184.874 340.985,180.207 341.5,175.5C 341.5,173.833 341.5,172.167 341.5,170.5 Z"/></g>
<g><path style="opacity:1" fill="#85735d" d="M 239.5,172.5 C 241.746,173.455 244.079,174.122 246.5,174.5C 245.189,179.703 247.022,183.036 252,184.5C 258.71,183.199 265.376,183.199 272,184.5C 273.392,181.722 273.892,178.722 273.5,175.5C 275.764,174.781 278.097,174.448 280.5,174.5C 278.291,176.535 276.291,178.868 274.5,181.5C 275.857,183.186 277.19,184.852 278.5,186.5C 277.504,186.586 276.671,186.252 276,185.5C 275.29,186.973 274.124,187.64 272.5,187.5C 265.345,186.671 258.011,186.171 250.5,186C 244.38,181.283 241.713,182.783 242.5,190.5C 241.159,186.514 241.492,182.514 243.5,178.5C 242.568,176.235 241.235,174.235 239.5,172.5 Z"/></g>
<g><path style="opacity:1" fill="#74665a" d="M 272.5,187.5 C 265.137,187.169 257.803,187.503 250.5,188.5C 250.291,189.086 249.957,189.586 249.5,190C 252.403,193.132 251.736,195.298 247.5,196.5C 249.559,197.567 251.392,198.9 253,200.5C 254.726,199.424 256.559,199.257 258.5,200C 257.833,200.333 257.167,200.667 256.5,201C 257.793,201.49 259.127,201.657 260.5,201.5C 251.56,202.93 245.56,199.263 242.5,190.5C 241.713,182.783 244.38,181.283 250.5,186C 258.011,186.171 265.345,186.671 272.5,187.5 Z"/></g>
<g><path style="opacity:1" fill="#6e5b4c" d="M 278.5,186.5 C 278.859,188.371 279.859,189.871 281.5,191C 281.307,192.645 281.14,194.479 281,196.5C 280.5,197 280,197.5 279.5,198C 274.249,198.804 269.082,198.637 264,197.5C 263.52,199.133 262.687,200.466 261.5,201.5C 261.167,201.5 260.833,201.5 260.5,201.5C 259.127,201.657 257.793,201.49 256.5,201C 257.167,200.667 257.833,200.333 258.5,200C 256.559,199.257 254.726,199.424 253,200.5C 251.392,198.9 249.559,197.567 247.5,196.5C 251.736,195.298 252.403,193.132 249.5,190C 249.957,189.586 250.291,189.086 250.5,188.5C 257.803,187.503 265.137,187.169 272.5,187.5C 274.124,187.64 275.29,186.973 276,185.5C 276.671,186.252 277.504,186.586 278.5,186.5 Z"/></g>
<g><path style="opacity:1" fill="#736051" d="M 340.5,175.5 C 340.833,175.5 341.167,175.5 341.5,175.5C 340.985,180.207 340.152,184.874 339,189.5C 338.667,188.833 338.333,188.167 338,187.5C 337.421,188.928 337.588,190.262 338.5,191.5C 336.833,191.5 335.167,191.5 333.5,191.5C 333.155,196.546 330.488,198.88 325.5,198.5C 326.624,194.95 326.624,191.617 325.5,188.5C 324.575,187.438 323.575,187.438 322.5,188.5C 323.455,186.254 324.122,183.921 324.5,181.5C 325.451,180.081 325.784,178.415 325.5,176.5C 325.722,179.892 327.555,181.892 331,182.5C 333.54,181.815 336.04,180.981 338.5,180C 339.099,178.378 339.766,176.878 340.5,175.5 Z"/></g>
<g><path style="opacity:1" fill="#746253" d="M 200.5,180.5 C 200.371,182.216 200.038,183.883 199.5,185.5C 197.926,187.102 197.259,189.102 197.5,191.5C 195.5,191.5 193.5,191.5 191.5,191.5C 191.808,198.068 189.308,199.734 184,196.5C 183.667,194.5 183.333,192.5 183,190.5C 182.501,196.157 182.334,201.824 182.5,207.5C 182.5,208.167 182.5,208.833 182.5,209.5C 181.834,205.681 181.501,201.681 181.5,197.5C 181.276,191.902 181.943,186.569 183.5,181.5C 184.261,182.391 185.261,183.058 186.5,183.5C 191.174,181.49 195.841,180.49 200.5,180.5 Z"/></g>
<g><path style="opacity:0.086" fill="#b4a5a4" d="M 199.5,185.5 C 198.637,191.455 198.303,197.455 198.5,203.5C 197.517,199.702 197.183,195.702 197.5,191.5C 197.259,189.102 197.926,187.102 199.5,185.5 Z"/></g>
<g><path style="opacity:0.384" fill="#a2999c" d="M 320.5,192.5 C 319.246,195.093 317.58,197.427 315.5,199.5C 315.167,199.5 314.833,199.5 314.5,199.5C 315.757,196.573 317.757,194.239 320.5,192.5 Z"/></g>
<g><path style="opacity:1" fill="#615858" d="M 338.5,191.5 C 338.5,191.833 338.5,192.167 338.5,192.5C 337.429,196.976 335.096,200.643 331.5,203.5C 329.09,202.611 326.59,201.945 324,201.5C 321.745,201.61 320.078,202.61 319,204.5C 317.198,203.211 316.031,201.544 315.5,199.5C 317.58,197.427 319.246,195.093 320.5,192.5C 321.167,191.167 321.833,189.833 322.5,188.5C 323.575,187.438 324.575,187.438 325.5,188.5C 326.624,191.617 326.624,194.95 325.5,198.5C 330.488,198.88 333.155,196.546 333.5,191.5C 335.167,191.5 336.833,191.5 338.5,191.5 Z"/></g>
<g><path style="opacity:1" fill="#5b5859" d="M 197.5,191.5 C 197.183,195.702 197.517,199.702 198.5,203.5C 199.964,208.558 201.63,213.558 203.5,218.5C 202.357,218.092 201.357,217.425 200.5,216.5C 199.833,213.833 199.167,211.167 198.5,208.5C 193.208,207.505 187.875,207.172 182.5,207.5C 182.334,201.824 182.501,196.157 183,190.5C 183.333,192.5 183.667,194.5 184,196.5C 189.308,199.734 191.808,198.068 191.5,191.5C 193.5,191.5 195.5,191.5 197.5,191.5 Z"/></g>
<g><path style="opacity:1" fill="#5e5d5c" d="M 278.5,186.5 C 285.833,193.167 292.833,200.167 299.5,207.5C 297.983,207.489 296.816,206.823 296,205.5C 291.434,207.09 286.6,208.09 281.5,208.5C 280.332,209.906 280.665,211.072 282.5,212C 281.829,212.986 281.829,214.153 282.5,215.5C 277.385,210.755 272.385,205.921 267.5,201C 265.512,200.82 263.512,200.986 261.5,201.5C 262.687,200.466 263.52,199.133 264,197.5C 269.082,198.637 274.249,198.804 279.5,198C 280,197.5 280.5,197 281,196.5C 281.14,194.479 281.307,192.645 281.5,191C 279.859,189.871 278.859,188.371 278.5,186.5 Z"/></g>
<g><path style="opacity:0.99" fill="#5c5d5d" d="M 314.5,199.5 C 314.833,199.5 315.167,199.5 315.5,199.5C 316.031,201.544 317.198,203.211 319,204.5C 320.078,202.61 321.745,201.61 324,201.5C 326.59,201.945 329.09,202.611 331.5,203.5C 327.561,209.108 322.894,214.108 317.5,218.5C 317.211,214.894 317.544,211.394 318.5,208C 314.514,207.501 310.514,207.334 306.5,207.5C 308.77,204.379 311.437,201.713 314.5,199.5 Z"/></g>
<g><path style="opacity:1" fill="#4e4c60" d="M 182.5,207.5 C 187.875,207.172 193.208,207.505 198.5,208.5C 199.167,211.167 199.833,213.833 200.5,216.5C 201.357,217.425 202.357,218.092 203.5,218.5C 204.338,218.842 204.672,219.508 204.5,220.5C 203.883,220.611 203.383,220.944 203,221.5C 201.369,220.52 199.536,219.02 197.5,217C 192.079,215.72 190.079,217.887 191.5,223.5C 191.119,228.18 192.119,232.514 194.5,236.5C 188.081,228.655 184.081,219.655 182.5,209.5C 182.5,208.833 182.5,208.167 182.5,207.5 Z"/></g>
<g><path style="opacity:1" fill="#4f4c5f" d="M 299.5,207.5 C 300.794,208.29 301.961,209.29 303,210.5C 303.422,208.574 304.589,207.574 306.5,207.5C 310.514,207.334 314.514,207.501 318.5,208C 317.544,211.394 317.211,214.894 317.5,218.5C 315.833,220.833 313.833,222.833 311.5,224.5C 310.048,223.698 308.382,223.198 306.5,223C 307.683,220.845 307.35,218.845 305.5,217C 300.845,216.501 296.179,216.334 291.5,216.5C 292.128,220.491 290.795,221.824 287.5,220.5C 285.833,218.833 284.167,217.167 282.5,215.5C 281.829,214.153 281.829,212.986 282.5,212C 280.665,211.072 280.332,209.906 281.5,208.5C 286.6,208.09 291.434,207.09 296,205.5C 296.816,206.823 297.983,207.489 299.5,207.5 Z"/></g>
<g><path style="opacity:1" fill="#3d4d5c" d="M 311.5,224.5 C 307.472,228.859 303.472,233.193 299.5,237.5C 299.867,233.033 299.367,228.7 298,224.5C 296.75,225.573 295.416,225.573 294,224.5C 292.252,226.1 291.085,228.1 290.5,230.5C 288.288,229.911 286.288,230.577 284.5,232.5C 286.276,229.788 287.943,226.955 289.5,224C 289.022,222.697 288.355,221.531 287.5,220.5C 290.795,221.824 292.128,220.491 291.5,216.5C 296.179,216.334 300.845,216.501 305.5,217C 307.35,218.845 307.683,220.845 306.5,223C 308.382,223.198 310.048,223.698 311.5,224.5 Z"/></g>
<g><path style="opacity:1" fill="#394767" d="M 299.5,237.5 C 297.984,240.533 295.984,243.2 293.5,245.5C 293.719,244.325 293.386,243.325 292.5,242.5C 291.604,243.506 290.938,243.506 290.5,242.5C 291.628,241.738 292.795,241.071 294,240.5C 294.601,239.035 294.101,238.035 292.5,237.5C 291.749,238.376 291.249,239.376 291,240.5C 289.308,231.832 286.141,231.332 281.5,239C 280.128,239.402 278.795,239.902 277.5,240.5C 276.848,242.808 275.515,244.475 273.5,245.5C 271.833,245.5 270.167,245.5 268.5,245.5C 274.161,241.656 279.494,237.323 284.5,232.5C 286.288,230.577 288.288,229.911 290.5,230.5C 291.085,228.1 292.252,226.1 294,224.5C 295.416,225.573 296.75,225.573 298,224.5C 299.367,228.7 299.867,233.033 299.5,237.5 Z"/></g>
<g><path style="opacity:1" fill="#304268" d="M 219.5,249.5 C 215.5,249.5 211.5,249.5 207.5,249.5C 205.124,246.906 203.791,243.739 203.5,240C 204.27,238.225 205.437,236.725 207,235.5C 207.775,233.051 206.942,231.384 204.5,230.5C 202.228,231.441 200.228,232.774 198.5,234.5C 197.002,231.747 195.002,229.414 192.5,227.5C 193.53,227.446 194.697,227.112 196,226.5C 197.426,230.431 198.593,230.431 199.5,226.5C 200.473,225.209 201.473,225.209 202.5,226.5C 203.192,225.975 203.692,225.308 204,224.5C 204.605,226.481 205.605,226.815 207,225.5C 207.92,228.101 208.587,230.768 209,233.5C 211.894,235.849 214.394,238.516 216.5,241.5C 218.608,240.52 220.608,240.854 222.5,242.5C 217.913,242.888 213.246,242.888 208.5,242.5C 208.5,244.167 208.5,245.833 208.5,247.5C 212.489,247.116 216.155,247.783 219.5,249.5 Z"/></g>
<g><path style="opacity:1" fill="#384768" d="M 191.5,223.5 C 194.14,224.448 196.807,225.448 199.5,226.5C 198.593,230.431 197.426,230.431 196,226.5C 194.697,227.112 193.53,227.446 192.5,227.5C 195.002,229.414 197.002,231.747 198.5,234.5C 200.228,232.774 202.228,231.441 204.5,230.5C 206.942,231.384 207.775,233.051 207,235.5C 205.437,236.725 204.27,238.225 203.5,240C 203.791,243.739 205.124,246.906 207.5,249.5C 207.5,249.833 207.5,250.167 207.5,250.5C 204.925,249.432 202.758,247.765 201,245.5C 198.615,242.621 196.448,239.621 194.5,236.5C 192.119,232.514 191.119,228.18 191.5,223.5 Z"/></g>
<g><path style="opacity:1" fill="#384964" d="M 204.5,220.5 C 211.919,230.587 220.919,238.921 231.5,245.5C 228.833,245.5 226.167,245.5 223.5,245.5C 223.5,246.833 223.5,248.167 223.5,249.5C 222.167,249.5 220.833,249.5 219.5,249.5C 216.155,247.783 212.489,247.116 208.5,247.5C 208.5,245.833 208.5,244.167 208.5,242.5C 213.246,242.888 217.913,242.888 222.5,242.5C 220.608,240.854 218.608,240.52 216.5,241.5C 214.394,238.516 211.894,235.849 209,233.5C 208.587,230.768 207.92,228.101 207,225.5C 205.605,226.815 204.605,226.481 204,224.5C 203.692,225.308 203.192,225.975 202.5,226.5C 201.473,225.209 200.473,225.209 199.5,226.5C 196.807,225.448 194.14,224.448 191.5,223.5C 190.079,217.887 192.079,215.72 197.5,217C 199.536,219.02 201.369,220.52 203,221.5C 203.383,220.944 203.883,220.611 204.5,220.5 Z"/></g>
<g><path style="opacity:1" fill="#313f64" d="M 293.5,245.5 C 291.5,248.167 289.167,250.5 286.5,252.5C 286.5,250.833 286.5,249.167 286.5,247.5C 283.881,247.232 281.381,247.565 279,248.5C 277.736,246.393 275.903,245.393 273.5,245.5C 275.515,244.475 276.848,242.808 277.5,240.5C 278.795,239.902 280.128,239.402 281.5,239C 286.141,231.332 289.308,231.832 291,240.5C 291.249,239.376 291.749,238.376 292.5,237.5C 294.101,238.035 294.601,239.035 294,240.5C 292.795,241.071 291.628,241.738 290.5,242.5C 290.938,243.506 291.604,243.506 292.5,242.5C 293.386,243.325 293.719,244.325 293.5,245.5 Z"/></g>
<g><path style="opacity:1" fill="#58626f" d="M 263.5,247.5 C 265.379,247.393 265.712,247.893 264.5,249C 261.518,249.498 258.518,249.665 255.5,249.5C 257.905,248.232 260.572,247.565 263.5,247.5 Z"/></g>
<g><path style="opacity:1" fill="#283d6c" d="M 268.5,245.5 C 270.167,245.5 271.833,245.5 273.5,245.5C 275.903,245.393 277.736,246.393 279,248.5C 281.381,247.565 283.881,247.232 286.5,247.5C 286.5,249.167 286.5,250.833 286.5,252.5C 285.504,252.586 284.671,252.252 284,251.5C 283.722,252.416 283.222,253.082 282.5,253.5C 282.539,252.244 282.039,251.244 281,250.5C 277.318,252.137 274.151,251.471 271.5,248.5C 268.151,249.167 266.484,250.833 266.5,253.5C 261.075,251.105 255.408,250.272 249.5,251C 250.094,251.464 250.761,251.631 251.5,251.5C 249.372,252.629 247.039,252.796 244.5,252C 245.167,251.667 245.833,251.333 246.5,251C 245.584,250.722 244.918,250.222 244.5,249.5C 248.167,249.5 251.833,249.5 255.5,249.5C 258.518,249.665 261.518,249.498 264.5,249C 265.712,247.893 265.379,247.393 263.5,247.5C 264.93,246.463 266.597,245.796 268.5,245.5 Z"/></g>
<g><path style="opacity:1" fill="#6b7396" d="M 236.5,247.5 C 239.428,247.565 242.095,248.232 244.5,249.5C 242.738,249.357 241.071,249.691 239.5,250.5C 238.452,249.452 237.452,248.452 236.5,247.5 Z"/></g>
<g><path style="opacity:1" fill="#2c3f70" d="M 231.5,245.5 C 233.553,245.402 235.22,246.069 236.5,247.5C 231.965,245.458 228.299,246.458 225.5,250.5C 223.775,251.015 222.108,251.682 220.5,252.5C 221.246,253.736 221.579,255.07 221.5,256.5C 223.5,256.5 225.5,256.5 227.5,256.5C 226.432,257.434 225.099,257.768 223.5,257.5C 223.5,258.5 223.5,259.5 223.5,260.5C 227.122,260.322 230.456,260.989 233.5,262.5C 230.14,262.384 226.807,262.051 223.5,261.5C 217.463,258.818 212.129,255.151 207.5,250.5C 207.5,250.167 207.5,249.833 207.5,249.5C 211.5,249.5 215.5,249.5 219.5,249.5C 220.833,249.5 222.167,249.5 223.5,249.5C 223.5,248.167 223.5,246.833 223.5,245.5C 226.167,245.5 228.833,245.5 231.5,245.5 Z"/></g>
<g><path style="opacity:1" fill="#1d3c70" d="M 282.5,253.5 C 279.787,255.578 277.12,257.745 274.5,260C 272.167,260.333 269.833,260.667 267.5,261C 268.5,261.333 269.5,261.667 270.5,262C 269.584,262.278 268.918,262.778 268.5,263.5C 266.5,263.167 264.5,262.833 262.5,262.5C 260.236,261.781 257.903,261.448 255.5,261.5C 255.5,260.167 255.5,258.833 255.5,257.5C 258.616,257.711 261.45,258.045 264,258.5C 265.892,257.383 266.725,255.716 266.5,253.5C 266.484,250.833 268.151,249.167 271.5,248.5C 274.151,251.471 277.318,252.137 281,250.5C 282.039,251.244 282.539,252.244 282.5,253.5 Z"/></g>
<g><path style="opacity:1" fill="#1d3d72" d="M 236.5,247.5 C 237.452,248.452 238.452,249.452 239.5,250.5C 241.071,249.691 242.738,249.357 244.5,249.5C 244.918,250.222 245.584,250.722 246.5,251C 245.833,251.333 245.167,251.667 244.5,252C 247.039,252.796 249.372,252.629 251.5,251.5C 256.421,251.135 256.755,252.135 252.5,254.5C 253.167,255.167 253.833,255.833 254.5,256.5C 248.719,257.025 243.052,258.025 237.5,259.5C 234.436,257.702 231.103,256.702 227.5,256.5C 225.5,256.5 223.5,256.5 221.5,256.5C 221.579,255.07 221.246,253.736 220.5,252.5C 222.108,251.682 223.775,251.015 225.5,250.5C 228.299,246.458 231.965,245.458 236.5,247.5 Z"/></g>
<g><path style="opacity:1" fill="#1d3c72" d="M 266.5,253.5 C 266.725,255.716 265.892,257.383 264,258.5C 261.45,258.045 258.616,257.711 255.5,257.5C 255.5,258.833 255.5,260.167 255.5,261.5C 257.903,261.448 260.236,261.781 262.5,262.5C 262.611,263.117 262.944,263.617 263.5,264C 255.526,265.189 247.526,265.522 239.5,265C 237.148,264.76 235.148,263.927 233.5,262.5C 230.456,260.989 227.122,260.322 223.5,260.5C 223.5,259.5 223.5,258.5 223.5,257.5C 225.099,257.768 226.432,257.434 227.5,256.5C 231.103,256.702 234.436,257.702 237.5,259.5C 243.052,258.025 248.719,257.025 254.5,256.5C 253.833,255.833 253.167,255.167 252.5,254.5C 256.755,252.135 256.421,251.135 251.5,251.5C 250.761,251.631 250.094,251.464 249.5,251C 255.408,250.272 261.075,251.105 266.5,253.5 Z"/></g>
<g><path style="opacity:0.906" fill="#546486" d="M 286.5,252.5 C 281.465,257.687 275.465,261.354 268.5,263.5C 268.918,262.778 269.584,262.278 270.5,262C 269.5,261.667 268.5,261.333 267.5,261C 269.833,260.667 272.167,260.333 274.5,260C 277.12,257.745 279.787,255.578 282.5,253.5C 283.222,253.082 283.722,252.416 284,251.5C 284.671,252.252 285.504,252.586 286.5,252.5 Z"/></g>
<g><path style="opacity:1" fill="#3f4e6d" d="M 223.5,261.5 C 226.807,262.051 230.14,262.384 233.5,262.5C 235.148,263.927 237.148,264.76 239.5,265C 247.526,265.522 255.526,265.189 263.5,264C 262.944,263.617 262.611,263.117 262.5,262.5C 264.5,262.833 266.5,263.167 268.5,263.5C 267.158,264.793 265.491,265.626 263.5,266C 249.514,269.037 236.18,267.537 223.5,261.5 Z"/></g>
<g><path style="opacity:1" fill="#243d6f" d="M 58.5,283.5 C 63.8797,283.324 69.213,283.658 74.5,284.5C 74.3249,287.329 75.6582,288.996 78.5,289.5C 76.8333,290.833 75.1667,292.167 73.5,293.5C 72.5832,292.873 71.5832,292.539 70.5,292.5C 66.3656,291.515 62.0323,291.182 57.5,291.5C 57.5,290.5 57.5,289.5 57.5,288.5C 59.288,288.785 60.9547,288.452 62.5,287.5C 62.3333,287.167 62.1667,286.833 62,286.5C 59.6194,285.565 57.1194,285.232 54.5,285.5C 55.287,283.896 56.6203,283.229 58.5,283.5 Z"/></g>
<g><path style="opacity:1" fill="#565f7b" d="M 70.5,292.5 C 71.5832,292.539 72.5832,292.873 73.5,293.5C 75.1667,292.167 76.8333,290.833 78.5,289.5C 75.6582,288.996 74.3249,287.329 74.5,284.5C 69.213,283.658 63.8797,283.324 58.5,283.5C 64.4087,280.921 70.4087,281.088 76.5,284C 81.7982,288.362 81.2982,292.195 75,295.5C 73.0188,295.101 71.5188,294.101 70.5,292.5 Z"/></g>
<g><path style="opacity:1" fill="#e5b876" d="M 245.5,283.5 C 249.248,283.694 251.915,285.361 253.5,288.5C 252.292,287.766 250.959,287.433 249.5,287.5C 249.5,289.167 249.5,290.833 249.5,292.5C 247.809,291.136 246.142,289.803 244.5,288.5C 245.833,288.5 247.167,288.5 248.5,288.5C 248.69,286.041 247.69,284.374 245.5,283.5 Z"/></g>
<g><path style="opacity:0.214" fill="#a5b2c0" d="M 90.5,281.5 C 92.5598,280.189 94.7265,280.189 97,281.5C 97.3333,286.5 97.6667,291.5 98,296.5C 98.3826,295.944 98.8826,295.611 99.5,295.5C 99.5,296.167 99.5,296.833 99.5,297.5C 98.8501,297.804 98.1835,298.137 97.5,298.5C 96.5052,293.208 96.1718,287.875 96.5,282.5C 94.3792,282.675 92.3792,282.341 90.5,281.5 Z"/></g>
<g><path style="opacity:0.678" fill="#70768f" d="M 111.5,294.5 C 111.167,294.5 110.833,294.5 110.5,294.5C 107.289,294.012 104.456,294.679 102,296.5C 101.329,295.748 100.496,295.414 99.5,295.5C 101.462,293.983 103.795,293.316 106.5,293.5C 108.369,293.507 110.036,293.84 111.5,294.5 Z"/></g>
<g><path style="opacity:0.159" fill="#fdeaa8" d="M 318.5,295.5 C 314.816,294.272 311.15,294.272 307.5,295.5C 307.611,294.883 307.944,294.383 308.5,294C 309.833,293.833 311.167,293.667 312.5,293.5C 314.883,293.361 316.883,294.028 318.5,295.5 Z"/></g>
<g><path style="opacity:1" fill="#e39d3d" d="M 253.5,288.5 C 254.743,292.516 254.743,296.516 253.5,300.5C 253.5,301.167 253.5,301.833 253.5,302.5C 252.167,302.5 250.833,302.5 249.5,302.5C 249.5,301.5 249.5,300.5 249.5,299.5C 249.5,297.167 249.5,294.833 249.5,292.5C 249.5,290.833 249.5,289.167 249.5,287.5C 250.959,287.433 252.292,287.766 253.5,288.5 Z"/></g>
<g><path style="opacity:0.302" fill="#f1d599" d="M 253.5,288.5 C 254.997,290.29 255.664,292.456 255.5,295C 255.333,296.5 255.167,298 255,299.5C 254.617,300.056 254.117,300.389 253.5,300.5C 254.743,296.516 254.743,292.516 253.5,288.5 Z"/></g>
<g><path style="opacity:0.847" fill="#edca7e" d="M 283.5,295.5 C 279.833,295.5 276.167,295.5 272.5,295.5C 274.117,294.028 276.117,293.361 278.5,293.5C 279.833,293.667 281.167,293.833 282.5,294C 283.056,294.383 283.389,294.883 283.5,295.5 Z"/></g>
<g><path style="opacity:1" fill="#1c3e75" d="M 54.5,285.5 C 57.1194,285.232 59.6194,285.565 62,286.5C 62.1667,286.833 62.3333,287.167 62.5,287.5C 60.9547,288.452 59.288,288.785 57.5,288.5C 57.5,289.5 57.5,290.5 57.5,291.5C 55.9572,292.736 54.9572,294.402 54.5,296.5C 53.675,297.386 52.675,297.719 51.5,297.5C 52.3946,302.526 52.3946,307.526 51.5,312.5C 50.377,314.289 49.0436,314.622 47.5,313.5C 46.8982,311.392 46.5649,309.225 46.5,307C 48.7499,301.886 49.9165,296.386 50,290.5C 51.4813,289.529 52.3146,288.196 52.5,286.5C 52.8417,285.662 53.5084,285.328 54.5,285.5 Z"/></g>
<g><path style="opacity:1" fill="#1e3c6e" d="M 110.5,294.5 C 111.15,296.435 111.483,298.435 111.5,300.5C 112.833,300.5 114.167,300.5 115.5,300.5C 115.5,309.833 115.5,319.167 115.5,328.5C 112.921,328.917 110.754,328.25 109,326.5C 108.829,319.321 108.329,312.321 107.5,305.5C 107.714,303.856 107.38,302.356 106.5,301C 104.203,300.982 101.869,301.149 99.5,301.5C 99.5,300.167 99.5,298.833 99.5,297.5C 99.5,296.833 99.5,296.167 99.5,295.5C 100.496,295.414 101.329,295.748 102,296.5C 104.456,294.679 107.289,294.012 110.5,294.5 Z"/></g>
<g><path style="opacity:0.478" fill="#91abb7" d="M 111.5,294.5 C 114.167,295.167 115.833,296.833 116.5,299.5C 114.167,298.5 112.5,296.833 111.5,294.5 Z"/></g>
<g><path style="opacity:0.922" fill="#55657c" d="M 151.5,300.5 C 151.167,300.5 150.833,300.5 150.5,300.5C 148.68,298.552 146.346,297.552 143.5,297.5C 143.5,296.5 143.5,295.5 143.5,294.5C 139.434,294.307 135.434,294.64 131.5,295.5C 131.611,294.883 131.944,294.383 132.5,294C 136.833,293.333 141.167,293.333 145.5,294C 148.409,295.406 150.409,297.572 151.5,300.5 Z"/></g>
<g><path style="opacity:0.09" fill="#b3b7cf" d="M 211.5,294.5 C 213.265,293.539 215.265,293.205 217.5,293.5C 217.813,297.042 217.479,300.375 216.5,303.5C 216.5,300.5 216.5,297.5 216.5,294.5C 214.833,294.5 213.167,294.5 211.5,294.5 Z"/></g>
<g><path style="opacity:1" fill="#e9b26e" d="M 426.5,295.5 C 426.5,295.833 426.5,296.167 426.5,296.5C 422.774,296.177 419.107,296.511 415.5,297.5C 417.969,298.168 420.302,298.835 422.5,299.5C 422.167,299.5 421.833,299.5 421.5,299.5C 415.633,299.228 413.633,301.895 415.5,307.5C 414.883,307.389 414.383,307.056 414,306.5C 413.667,303.833 413.333,301.167 413,298.5C 409.693,302.894 409.86,307.227 413.5,311.5C 412.504,311.586 411.671,311.252 411,310.5C 407.43,305.503 407.764,300.837 412,296.5C 414.587,294.986 417.42,294.32 420.5,294.5C 422.696,294.505 424.696,294.838 426.5,295.5 Z"/></g>
<g><path style="opacity:1" fill="#e89437" d="M 426.5,296.5 C 427.404,297.209 427.737,298.209 427.5,299.5C 425.833,299.5 424.167,299.5 422.5,299.5C 420.302,298.835 417.969,298.168 415.5,297.5C 419.107,296.511 422.774,296.177 426.5,296.5 Z"/></g>
<g><path style="opacity:1" fill="#4f5a72" d="M 169.5,294.5 C 181.277,290.923 188.277,295.256 190.5,307.5C 190.5,307.833 190.5,308.167 190.5,308.5C 188.228,307.277 187.061,305.277 187,302.5C 184.253,300.507 182.086,298.007 180.5,295C 176.848,294.501 173.182,294.335 169.5,294.5 Z"/></g>
<g><path style="opacity:0.627" fill="#eac08b" d="M 382.5,295.5 C 378.92,298.938 376.253,302.938 374.5,307.5C 374.694,301.76 377.361,297.76 382.5,295.5 Z"/></g>
<g><path style="opacity:1" fill="#243f64" d="M 150.5,300.5 C 150.565,300.938 150.399,301.272 150,301.5C 146.658,298.288 144.825,298.955 144.5,303.5C 145.01,305.088 146.01,306.255 147.5,307C 146.309,307.698 145.309,308.531 144.5,309.5C 144.075,306.881 143.075,304.547 141.5,302.5C 140.726,301.853 139.726,301.52 138.5,301.5C 136.645,301.34 135.312,302.007 134.5,303.5C 132.837,305.438 132.171,307.772 132.5,310.5C 131.178,306.434 131.178,302.267 132.5,298C 130.381,297.658 130.047,296.825 131.5,295.5C 135.434,294.64 139.434,294.307 143.5,294.5C 143.5,295.5 143.5,296.5 143.5,297.5C 146.346,297.552 148.68,298.552 150.5,300.5 Z M 141.5,302.5 C 143.075,304.547 144.075,306.881 144.5,309.5C 140.833,309.5 137.167,309.5 133.5,309.5C 133.833,307.5 134.167,305.5 134.5,303.5C 136.764,302.781 139.097,302.448 141.5,302.5 Z"/></g>
<g><path style="opacity:1" fill="#e39b3b" d="M 272.5,295.5 C 276.167,295.5 279.833,295.5 283.5,295.5C 280.906,297.764 277.906,299.097 274.5,299.5C 273.167,299.5 271.833,299.5 270.5,299.5C 270.768,301.099 270.434,302.432 269.5,303.5C 266.979,304.472 266.146,303.472 267,300.5C 269.328,299.336 271.162,297.67 272.5,295.5 Z"/></g>
<g><path style="opacity:0.925" fill="#dbb373" d="M 318.5,295.5 C 320.833,295.833 322.167,297.167 322.5,299.5C 320.922,301.375 321.255,302.708 323.5,303.5C 323.5,304.5 323.5,305.5 323.5,306.5C 321.727,303.94 319.727,301.607 317.5,299.5C 319.842,298.789 320.175,297.456 318.5,295.5 Z"/></g>
<g><path style="opacity:0.482" fill="#f0cc8f" d="M 243.5,288.5 C 239.154,288.334 234.821,288.501 230.5,289C 229.167,293.667 229.167,298.333 230.5,303C 235.155,303.499 239.821,303.666 244.5,303.5C 239.695,304.487 234.695,304.821 229.5,304.5C 228.662,304.158 228.328,303.492 228.5,302.5C 228.5,297.5 228.5,292.5 228.5,287.5C 233.695,287.179 238.695,287.513 243.5,288.5 Z"/></g>
<g><path style="opacity:0.408" fill="#e1c090" d="M 426.5,296.5 C 426.5,296.167 426.5,295.833 426.5,295.5C 431.8,296.383 432.633,298.716 429,302.5C 426.433,301.413 423.933,300.413 421.5,299.5C 421.833,299.5 422.167,299.5 422.5,299.5C 424.167,299.5 425.833,299.5 427.5,299.5C 427.737,298.209 427.404,297.209 426.5,296.5 Z"/></g>
<g><path style="opacity:1" fill="#e2993d" d="M 382.5,295.5 C 385.85,295.335 389.183,295.502 392.5,296C 392.957,296.414 393.291,296.914 393.5,297.5C 389.184,298.364 384.851,299.031 380.5,299.5C 380.167,302.167 379.833,304.833 379.5,307.5C 379.665,311.664 379.165,315.997 378,320.5C 374.979,316.795 373.812,312.461 374.5,307.5C 376.253,302.938 378.92,298.938 382.5,295.5 Z"/></g>
<g><path style="opacity:0.514" fill="#f0be82" d="M 317.5,299.5 C 310.672,298.403 306.339,301.069 304.5,307.5C 305.57,299.467 309.903,296.8 317.5,299.5 Z"/></g>
<g><path style="opacity:1" fill="#eb972f" d="M 361.5,327.5 C 360.38,323.528 360.38,319.528 361.5,315.5C 362.167,309.986 362.833,304.319 363.5,298.5C 364.498,308.144 364.832,317.81 364.5,327.5C 363.5,327.5 362.5,327.5 361.5,327.5 Z"/></g>
<g><path style="opacity:1" fill="#d79741" d="M 365.5,296.5 C 366.144,308.216 365.478,319.549 363.5,330.5C 362.449,329.778 361.782,328.778 361.5,327.5C 362.5,327.5 363.5,327.5 364.5,327.5C 364.832,317.81 364.498,308.144 363.5,298.5C 362.833,304.319 362.167,309.986 361.5,315.5C 361.334,309.491 361.501,303.491 362,297.5C 363.011,296.663 364.178,296.33 365.5,296.5 Z"/></g>
<g><path style="opacity:0.847" fill="#e5af60" d="M 249.5,299.5 C 249.5,300.5 249.5,301.5 249.5,302.5C 250.833,302.5 252.167,302.5 253.5,302.5C 252.426,303.885 251.093,305.051 249.5,306C 252.739,307.736 255.073,310.236 256.5,313.5C 255.178,313.67 254.011,313.337 253,312.5C 252.74,316.25 252.073,319.916 251,323.5C 249.157,325.171 246.991,326.171 244.5,326.5C 244.5,326.167 244.5,325.833 244.5,325.5C 245.878,324.766 247.378,324.099 249,323.5C 251.524,319.968 251.857,316.302 250,312.5C 248.055,311.137 245.888,310.303 243.5,310C 238.845,309.501 234.179,309.334 229.5,309.5C 228.512,314.64 228.179,319.974 228.5,325.5C 227.348,320.015 227.182,314.349 228,308.5C 234.41,308.317 240.91,308.151 247.5,308C 248.337,306.989 248.67,305.822 248.5,304.5C 242.024,305.726 235.691,305.726 229.5,304.5C 234.695,304.821 239.695,304.487 244.5,303.5C 245.585,301.413 247.251,300.08 249.5,299.5 Z M 229.5,309.5 C 234.179,309.334 238.845,309.501 243.5,310C 245.888,310.303 248.055,311.137 250,312.5C 251.857,316.302 251.524,319.968 249,323.5C 247.378,324.099 245.878,324.766 244.5,325.5C 240.486,325.666 236.486,325.499 232.5,325C 231.584,324.626 230.75,324.126 230,323.5C 230.19,318.784 230.023,314.117 229.5,309.5 Z"/></g>
<g><path style="opacity:0.188" fill="#f5ca97" d="M 345.5,324.5 C 344.732,323.737 344.232,322.737 344,321.5C 343.5,313.173 343.334,304.84 343.5,296.5C 341.901,296.232 340.568,296.566 339.5,297.5C 339.5,303.167 339.5,308.833 339.5,314.5C 339.226,319.392 339.893,324.059 341.5,328.5C 340.768,327.192 339.934,325.858 339,324.5C 338.584,315.115 338.251,305.782 338,296.5C 339.671,294.724 341.504,294.39 343.5,295.5C 344.378,305.157 345.045,314.824 345.5,324.5 Z"/></g>
<g><path style="opacity:1" fill="#f48933" d="M 339.5,297.5 C 340.5,297.5 341.5,297.5 342.5,297.5C 342.666,303.509 342.499,309.509 342,315.5C 341.667,315.833 341.333,316.167 341,316.5C 340.722,315.584 340.222,314.918 339.5,314.5C 339.5,308.833 339.5,303.167 339.5,297.5 Z"/></g>
<g><path style="opacity:0.982" fill="#e6ae64" d="M 272.5,295.5 C 271.162,297.67 269.328,299.336 267,300.5C 266.146,303.472 266.979,304.472 269.5,303.5C 268.986,305.366 268.32,307.2 267.5,309C 267.743,309.902 268.077,310.735 268.5,311.5C 267.167,311.5 265.833,311.5 264.5,311.5C 263.908,314.127 263.575,316.794 263.5,319.5C 261.896,312.704 262.729,306.038 266,299.5C 268.069,297.915 270.236,296.581 272.5,295.5 Z"/></g>
<g><path style="opacity:0.958" fill="#de9e48" d="M 324.5,340.5 C 324.5,335.833 324.5,331.167 324.5,326.5C 325.166,330.684 325.833,335.018 326.5,339.5C 327.833,325.833 327.833,312.167 326.5,298.5C 324.244,299.421 323.244,301.088 323.5,303.5C 321.255,302.708 320.922,301.375 322.5,299.5C 323.338,299.158 323.672,298.492 323.5,297.5C 325.086,296.587 326.586,296.587 328,297.5C 328.5,311.829 328.667,326.163 328.5,340.5C 327.167,340.5 325.833,340.5 324.5,340.5 Z"/></g>
<g><path style="opacity:1" fill="#283c6a" d="M 169.5,294.5 C 173.182,294.335 176.848,294.501 180.5,295C 182.086,298.007 184.253,300.507 187,302.5C 187.061,305.277 188.228,307.277 190.5,308.5C 190.5,310.833 190.5,313.167 190.5,315.5C 185.5,315.5 180.5,315.5 175.5,315.5C 175.196,314.85 174.863,314.183 174.5,313.5C 177.366,312.792 180.2,312.125 183,311.5C 183.497,309.19 183.663,306.857 183.5,304.5C 182.041,304.567 180.708,304.234 179.5,303.5C 177.283,302.631 174.95,302.298 172.5,302.5C 172.5,301.5 172.5,300.5 172.5,299.5C 175.554,300.321 178.554,300.321 181.5,299.5C 180.281,296.941 178.281,295.607 175.5,295.5C 165.235,296.573 161.735,301.907 165,311.5C 165.497,309.19 165.663,306.857 165.5,304.5C 167.5,304.167 169.5,303.833 171.5,303.5C 171.167,304.167 170.833,304.833 170.5,305.5C 169.833,305.833 169.167,306.167 168.5,306.5C 168.565,306.062 168.399,305.728 168,305.5C 166.621,310.036 166.121,314.703 166.5,319.5C 167.959,319.433 169.292,319.766 170.5,320.5C 170.953,321.458 171.619,322.292 172.5,323C 175.367,323.801 178.034,323.634 180.5,322.5C 181.93,322.579 183.264,322.246 184.5,321.5C 185.518,322.193 186.518,322.859 187.5,323.5C 188.478,323.811 189.145,324.478 189.5,325.5C 188.395,327.611 186.729,328.945 184.5,329.5C 179.175,330.761 173.842,330.761 168.5,329.5C 166.596,329.262 165.262,328.262 164.5,326.5C 164.52,324.857 163.853,323.524 162.5,322.5C 162.188,314.958 162.521,307.291 163.5,299.5C 164.638,296.914 166.638,295.247 169.5,294.5 Z M 172.5,302.5 C 174.95,302.298 177.283,302.631 179.5,303.5C 179.328,304.492 179.662,305.158 180.5,305.5C 180.5,306.833 180.5,308.167 180.5,309.5C 177.15,309.665 173.817,309.498 170.5,309C 169.829,308.014 169.829,306.847 170.5,305.5C 170.833,304.833 171.167,304.167 171.5,303.5C 172.167,303.5 172.5,303.167 172.5,302.5 Z"/></g>
<g><path style="opacity:1" fill="#233a73" d="M 172.5,302.5 C 172.5,303.167 172.167,303.5 171.5,303.5C 169.5,303.833 167.5,304.167 165.5,304.5C 165.663,306.857 165.497,309.19 165,311.5C 161.735,301.907 165.235,296.573 175.5,295.5C 178.281,295.607 180.281,296.941 181.5,299.5C 178.554,300.321 175.554,300.321 172.5,299.5C 172.5,300.5 172.5,301.5 172.5,302.5 Z"/></g>
<g><path style="opacity:0.647" fill="#76839f" d="M 57.5,295.5 C 54.7454,300.934 54.0788,306.601 55.5,312.5C 54.8826,312.389 54.3826,312.056 54,311.5C 53.3333,308.167 53.3333,304.833 54,301.5C 54.4238,298.975 55.5905,296.975 57.5,295.5 Z"/></g>
<g><path style="opacity:0.286" fill="#f2c988" d="M 274.5,299.5 C 271.525,302.692 269.858,306.192 269.5,310C 274.833,310.667 280.167,310.667 285.5,310C 286.252,309.329 286.586,308.496 286.5,307.5C 286.833,307.5 287.167,307.5 287.5,307.5C 287.771,309.38 287.104,310.713 285.5,311.5C 283.167,311.5 280.833,311.5 278.5,311.5C 278.167,311.5 277.833,311.5 277.5,311.5C 274.833,311.5 272.167,311.5 269.5,311.5C 269.167,311.5 268.833,311.5 268.5,311.5C 268.077,310.735 267.743,309.902 267.5,309C 268.32,307.2 268.986,305.366 269.5,303.5C 270.434,302.432 270.768,301.099 270.5,299.5C 271.833,299.5 273.167,299.5 274.5,299.5 Z"/></g>
<g><path style="opacity:1" fill="#e69a38" d="M 318.5,295.5 C 320.175,297.456 319.842,298.789 317.5,299.5C 309.903,296.8 305.57,299.467 304.5,307.5C 303.778,307.918 303.278,308.584 303,309.5C 302.667,313.167 302.333,316.833 302,320.5C 301.148,319.429 300.315,318.429 299.5,317.5C 298.949,311.183 299.949,305.183 302.5,299.5C 303.27,297.065 304.937,295.731 307.5,295.5C 311.15,294.272 314.816,294.272 318.5,295.5 Z"/></g>
<g><path style="opacity:0.337" fill="#f0cfa3" d="M 365.5,295.5 C 366.495,307.322 366.828,319.322 366.5,331.5C 364.585,331.784 362.919,331.451 361.5,330.5C 362.167,330.5 362.833,330.5 363.5,330.5C 365.478,319.549 366.144,308.216 365.5,296.5C 365.5,296.167 365.5,295.833 365.5,295.5 Z"/></g>
<g><path style="opacity:0.372" fill="#e4c08e" d="M 453.5,299.5 C 453.719,298.325 453.386,297.325 452.5,296.5C 450.253,295.626 447.92,295.292 445.5,295.5C 445.5,292.167 445.5,288.833 445.5,285.5C 444.167,285.5 442.833,285.5 441.5,285.5C 441.5,288.833 441.5,292.167 441.5,295.5C 439.654,295.222 438.32,295.889 437.5,297.5C 438.32,299.111 439.654,299.778 441.5,299.5C 441.5,308.833 441.5,318.167 441.5,327.5C 440.507,318.682 440.173,309.682 440.5,300.5C 433.833,298.5 433.833,296.5 440.5,294.5C 440.18,291.102 440.513,287.768 441.5,284.5C 442.833,283.167 444.167,283.167 445.5,284.5C 446.487,287.768 446.82,291.102 446.5,294.5C 449.187,294.336 451.854,294.503 454.5,295C 456.043,297.045 455.71,298.545 453.5,299.5 Z"/></g>
<g><path style="opacity:0.237" fill="#eccb9b" d="M 453.5,299.5 C 451.393,300.468 449.059,300.802 446.5,300.5C 446.334,308.507 446.5,316.507 447,324.5C 448.948,325.109 450.782,325.776 452.5,326.5C 450.05,326.702 447.717,326.369 445.5,325.5C 445.5,316.833 445.5,308.167 445.5,299.5C 448.167,299.5 450.833,299.5 453.5,299.5 Z"/></g>
<g><path style="opacity:0.451" fill="#e6ba80" d="M 324.5,340.5 C 325.833,340.5 327.167,340.5 328.5,340.5C 328.667,326.163 328.5,311.829 328,297.5C 326.586,296.587 325.086,296.587 323.5,297.5C 324.132,294.508 325.799,293.841 328.5,295.5C 329.499,310.819 329.833,326.152 329.5,341.5C 327.585,341.784 325.919,341.451 324.5,340.5 Z"/></g>
<g><path style="opacity:1" fill="#e19335" d="M 415.5,307.5 C 417.094,308.983 418.76,310.483 420.5,312C 422.941,312.036 424.941,312.869 426.5,314.5C 425.833,314.833 425.167,315.167 424.5,315.5C 420.793,314.125 417.127,312.792 413.5,311.5C 409.86,307.227 409.693,302.894 413,298.5C 413.333,301.167 413.667,303.833 414,306.5C 414.383,307.056 414.883,307.389 415.5,307.5 Z"/></g>
<g><path style="opacity:1" fill="#55647d" d="M 110.5,294.5 C 110.833,294.5 111.167,294.5 111.5,294.5C 112.5,296.833 114.167,298.5 116.5,299.5C 117.801,310.03 117.801,320.53 116.5,331C 113.24,331.784 110.073,331.617 107,330.5C 106.5,322.173 106.334,313.84 106.5,305.5C 106.833,305.5 107.167,305.5 107.5,305.5C 108.329,312.321 108.829,319.321 109,326.5C 110.754,328.25 112.921,328.917 115.5,328.5C 115.5,319.167 115.5,309.833 115.5,300.5C 114.167,300.5 112.833,300.5 111.5,300.5C 111.483,298.435 111.15,296.435 110.5,294.5 Z"/></g>
<g><path style="opacity:1" fill="#3d5179" d="M 206.5,294.5 C 204.599,295.931 202.432,296.931 200,297.5C 199.333,306.833 199.333,316.167 200,325.5C 201.356,326.38 202.856,326.714 204.5,326.5C 203.574,320.537 203.24,314.704 203.5,309C 203.944,307.238 204.444,307.405 205,309.5C 206.009,307.975 206.509,306.308 206.5,304.5C 209.455,303.841 212.455,303.508 215.5,303.5C 215.5,301.167 215.5,298.833 215.5,296.5C 213.379,296.325 211.379,296.659 209.5,297.5C 209.5,296.833 209.5,296.167 209.5,295.5C 209.842,294.662 210.508,294.328 211.5,294.5C 213.167,294.5 214.833,294.5 216.5,294.5C 216.5,297.5 216.5,300.5 216.5,303.5C 213.398,303.985 210.731,305.318 208.5,307.5C 207.778,307.918 207.278,308.584 207,309.5C 206.5,316.492 206.334,323.492 206.5,330.5C 203.435,331.818 200.269,331.818 197,330.5C 196.333,318.5 196.333,306.5 197,294.5C 200.269,293.182 203.435,293.182 206.5,294.5 Z"/></g>
<g><path style="opacity:1" fill="#1f3c73" d="M 206.5,294.5 C 206.34,296.199 206.506,297.866 207,299.5C 207.708,298.619 208.542,297.953 209.5,297.5C 211.379,296.659 213.379,296.325 215.5,296.5C 215.5,298.833 215.5,301.167 215.5,303.5C 212.455,303.508 209.455,303.841 206.5,304.5C 206.509,306.308 206.009,307.975 205,309.5C 204.444,307.405 203.944,307.238 203.5,309C 203.24,314.704 203.574,320.537 204.5,326.5C 202.856,326.714 201.356,326.38 200,325.5C 199.333,316.167 199.333,306.833 200,297.5C 202.432,296.931 204.599,295.931 206.5,294.5 Z"/></g>
<g><path style="opacity:0.075" fill="#9ab6df" d="M 206.5,294.5 C 207.222,294.918 207.722,295.584 208,296.5C 208.383,295.944 208.883,295.611 209.5,295.5C 209.5,296.167 209.5,296.833 209.5,297.5C 208.542,297.953 207.708,298.619 207,299.5C 206.506,297.866 206.34,296.199 206.5,294.5 Z"/></g>
<g><path style="opacity:1" fill="#eaa237" d="M 324.5,326.5 C 323.609,325.739 322.942,324.739 322.5,323.5C 323.046,321.865 323.38,320.199 323.5,318.5C 323.5,314.5 323.5,310.5 323.5,306.5C 323.5,305.5 323.5,304.5 323.5,303.5C 323.244,301.088 324.244,299.421 326.5,298.5C 327.833,312.167 327.833,325.833 326.5,339.5C 325.833,335.018 325.166,330.684 324.5,326.5 Z"/></g>
<g><path style="opacity:1" fill="#1e3c6c" d="M 131.5,295.5 C 130.047,296.825 130.381,297.658 132.5,298C 131.178,302.267 131.178,306.434 132.5,310.5C 136.702,310.817 140.702,310.483 144.5,309.5C 145.309,308.531 146.309,307.698 147.5,307C 146.01,306.255 145.01,305.088 144.5,303.5C 144.825,298.955 146.658,298.288 150,301.5C 150.399,301.272 150.565,300.938 150.5,300.5C 150.833,300.5 151.167,300.5 151.5,300.5C 152.903,305.387 153.569,310.387 153.5,315.5C 146.5,315.5 139.5,315.5 132.5,315.5C 131.566,316.568 131.232,317.901 131.5,319.5C 129.234,319.141 127.401,319.808 126,321.5C 125.348,318.406 125.682,315.406 127,312.5C 127.414,312.957 127.914,313.291 128.5,313.5C 129.429,312.311 129.762,310.978 129.5,309.5C 128.5,309.5 127.5,309.5 126.5,309.5C 126.323,305.766 126.656,302.099 127.5,298.5C 128.262,296.738 129.596,295.738 131.5,295.5 Z M 141.5,302.5 C 143.075,304.547 144.075,306.881 144.5,309.5C 140.833,309.5 137.167,309.5 133.5,309.5C 133.833,307.5 134.167,305.5 134.5,303.5C 136.764,302.781 139.097,302.448 141.5,302.5 Z"/></g>
<g><path style="opacity:0.573" fill="#6d899c" d="M 134.5,303.5 C 134.167,305.5 133.833,307.5 133.5,309.5C 137.167,309.5 140.833,309.5 144.5,309.5C 140.702,310.483 136.702,310.817 132.5,310.5C 132.171,307.772 132.837,305.438 134.5,303.5 Z"/></g>
<g><path style="opacity:0.071" fill="#a7bed4" d="M 141.5,302.5 C 139.097,302.448 136.764,302.781 134.5,303.5C 135.312,302.007 136.645,301.34 138.5,301.5C 139.726,301.52 140.726,301.853 141.5,302.5 Z"/></g>
<g><path style="opacity:0.749" fill="#769097" d="M 160.5,304.5 C 160.5,309.833 160.5,315.167 160.5,320.5C 157.925,315.155 157.925,309.821 160.5,304.5 Z"/></g>
<g><path style="opacity:1" fill="#21405e" d="M 179.5,303.5 C 180.708,304.234 182.041,304.567 183.5,304.5C 183.663,306.857 183.497,309.19 183,311.5C 180.2,312.125 177.366,312.792 174.5,313.5C 174.863,314.183 175.196,314.85 175.5,315.5C 173.265,315.205 171.265,315.539 169.5,316.5C 170.234,317.708 170.567,319.041 170.5,320.5C 169.292,319.766 167.959,319.433 166.5,319.5C 166.121,314.703 166.621,310.036 168,305.5C 168.399,305.728 168.565,306.062 168.5,306.5C 168.5,307.833 168.5,309.167 168.5,310.5C 172.833,310.5 177.167,310.5 181.5,310.5C 181.784,308.585 181.451,306.919 180.5,305.5C 179.662,305.158 179.328,304.492 179.5,303.5 Z"/></g>
<g><path style="opacity:0.584" fill="#7290a0" d="M 170.5,305.5 C 169.829,306.847 169.829,308.014 170.5,309C 173.817,309.498 177.15,309.665 180.5,309.5C 180.5,308.167 180.5,306.833 180.5,305.5C 181.451,306.919 181.784,308.585 181.5,310.5C 177.167,310.5 172.833,310.5 168.5,310.5C 168.5,309.167 168.5,307.833 168.5,306.5C 169.167,306.167 169.833,305.833 170.5,305.5 Z"/></g>
<g><path style="opacity:1" fill="#e79b32" d="M 285.5,311.5 C 287.104,310.713 287.771,309.38 287.5,307.5C 287.238,306.022 287.571,304.689 288.5,303.5C 289.59,306.878 290.59,310.211 291.5,313.5C 289.143,313.663 286.81,313.497 284.5,313C 285.056,312.617 285.389,312.117 285.5,311.5 Z"/></g>
<g><path style="opacity:0.939" fill="#e0ab63" d="M 283.5,295.5 C 286.365,296.191 288.532,297.858 290,300.5C 291.844,305.195 292.677,309.862 292.5,314.5C 284.718,314.964 277.051,315.297 269.5,315.5C 269.5,316.833 269.5,318.167 269.5,319.5C 268.5,319.5 267.5,319.5 266.5,319.5C 266.287,322.451 266.954,325.118 268.5,327.5C 265.862,325.582 264.195,322.915 263.5,319.5C 266.354,318.027 268.688,315.86 270.5,313C 269.944,312.617 269.611,312.117 269.5,311.5C 272.167,311.5 274.833,311.5 277.5,311.5C 277.833,314.167 278.167,314.167 278.5,311.5C 280.833,311.5 283.167,311.5 285.5,311.5C 285.389,312.117 285.056,312.617 284.5,313C 286.81,313.497 289.143,313.663 291.5,313.5C 290.59,310.211 289.59,306.878 288.5,303.5C 287.571,304.689 287.238,306.022 287.5,307.5C 287.167,307.5 286.833,307.5 286.5,307.5C 284.933,301.277 280.933,298.61 274.5,299.5C 277.906,299.097 280.906,297.764 283.5,295.5 Z"/></g>
<g><path style="opacity:0.729" fill="#e5c382" d="M 302.5,299.5 C 299.949,305.183 298.949,311.183 299.5,317.5C 299.5,318.5 299.5,319.5 299.5,320.5C 296.829,314.247 296.996,307.913 300,301.5C 300.417,300.244 301.25,299.577 302.5,299.5 Z"/></g>
<g><path style="opacity:0.957" fill="#dd9c4e" d="M 399.5,299.5 C 403.004,304.35 404.004,309.683 402.5,315.5C 397.533,316.038 392.866,315.371 388.5,313.5C 386.473,313.662 384.473,313.495 382.5,313C 382.833,312.667 383.167,312.333 383.5,312C 388.155,311.501 392.821,311.334 397.5,311.5C 397.891,307.617 397.224,303.95 395.5,300.5C 396.689,299.571 398.022,299.238 399.5,299.5 Z"/></g>
<g><path style="opacity:0.584" fill="#697f95" d="M 151.5,300.5 C 153.067,301.681 153.901,303.347 154,305.5C 154.499,309.152 154.665,312.818 154.5,316.5C 147.087,315.872 140.087,316.539 133.5,318.5C 132.596,317.791 132.263,316.791 132.5,315.5C 139.5,315.5 146.5,315.5 153.5,315.5C 153.569,310.387 152.903,305.387 151.5,300.5 Z"/></g>
<g><path style="opacity:0.582" fill="#7988a4" d="M 190.5,307.5 C 191.477,310.287 191.81,313.287 191.5,316.5C 184.167,316.5 176.833,316.5 169.5,316.5C 171.265,315.539 173.265,315.205 175.5,315.5C 180.5,315.5 185.5,315.5 190.5,315.5C 190.5,313.167 190.5,310.833 190.5,308.5C 190.5,308.167 190.5,307.833 190.5,307.5 Z"/></g>
<g><path style="opacity:1" fill="#344665" d="M 163.5,299.5 C 162.521,307.291 162.188,314.958 162.5,322.5C 163.853,323.524 164.52,324.857 164.5,326.5C 162.178,325.198 160.845,323.198 160.5,320.5C 160.5,315.167 160.5,309.833 160.5,304.5C 160.75,302.326 161.75,300.659 163.5,299.5 Z"/></g>
<g><path style="opacity:0.571" fill="#f1cf97" d="M 229.5,309.5 C 230.023,314.117 230.19,318.784 230,323.5C 230.75,324.126 231.584,324.626 232.5,325C 236.486,325.499 240.486,325.666 244.5,325.5C 244.5,325.833 244.5,326.167 244.5,326.5C 240.167,326.5 235.833,326.5 231.5,326.5C 230.391,326.443 229.391,326.11 228.5,325.5C 228.179,319.974 228.512,314.64 229.5,309.5 Z"/></g>
<g><path style="opacity:1" fill="#e3a536" d="M 268.5,311.5 C 268.833,311.5 269.167,311.5 269.5,311.5C 269.611,312.117 269.944,312.617 270.5,313C 268.688,315.86 266.354,318.027 263.5,319.5C 263.575,316.794 263.908,314.127 264.5,311.5C 265.833,311.5 267.167,311.5 268.5,311.5 Z"/></g>
<g><path style="opacity:1" fill="#e4a55b" d="M 415.5,307.5 C 419.85,309.23 424.183,311.063 428.5,313C 429.252,313.671 429.586,314.504 429.5,315.5C 430.447,317.734 431.114,320.068 431.5,322.5C 431.48,323.726 431.147,324.726 430.5,325.5C 430.5,324.167 430.5,322.833 430.5,321.5C 429.5,321.5 428.5,321.5 427.5,321.5C 427.5,320.5 427.5,319.5 427.5,318.5C 426.5,318.5 425.5,318.5 424.5,318.5C 420.697,316.429 417.03,314.096 413.5,311.5C 417.127,312.792 420.793,314.125 424.5,315.5C 425.167,315.167 425.833,314.833 426.5,314.5C 424.941,312.869 422.941,312.036 420.5,312C 418.76,310.483 417.094,308.983 415.5,307.5 Z"/></g>
<g><path style="opacity:0.294" fill="#9eb6cd" d="M 208.5,307.5 C 207.931,315.312 207.264,322.979 206.5,330.5C 206.334,323.492 206.5,316.492 207,309.5C 207.278,308.584 207.778,307.918 208.5,307.5 Z"/></g>
<g><path style="opacity:0.4" fill="#93a5b9" d="M 55.5,313.5 C 56.7169,316.067 58.3835,318.4 60.5,320.5C 56.9074,319.57 55.2407,317.237 55.5,313.5 Z"/></g>
<g><path style="opacity:0.612" fill="#848d98" d="M 76.5,318.5 C 74.8333,319.167 73.1667,319.833 71.5,320.5C 72.5905,317.808 74.2572,317.142 76.5,318.5 Z"/></g>
<g><path style="opacity:1" fill="#344e69" d="M 90.5,281.5 C 92.3792,282.341 94.3792,282.675 96.5,282.5C 96.1718,287.875 96.5052,293.208 97.5,298.5C 98.1835,298.137 98.8501,297.804 99.5,297.5C 99.5,298.833 99.5,300.167 99.5,301.5C 101.869,301.149 104.203,300.982 106.5,301C 107.38,302.356 107.714,303.856 107.5,305.5C 107.167,305.5 106.833,305.5 106.5,305.5C 104.428,302.589 101.762,301.922 98.5,303.5C 97.7784,303.918 97.2784,304.584 97,305.5C 96.5003,313.827 96.3336,322.16 96.5,330.5C 93.4355,331.818 90.2688,331.818 87,330.5C 86.5001,314.17 86.3334,297.837 86.5,281.5C 87.8333,281.5 89.1667,281.5 90.5,281.5 Z"/></g>
<g><path style="opacity:1" fill="#1e3c6b" d="M 94.5,307.5 C 95.6533,313.653 95.82,319.986 95,326.5C 93.5587,327.87 91.892,328.87 90,329.5C 89.9982,323.511 90.3316,317.511 91,311.5C 91.8835,309.307 93.0501,307.974 94.5,307.5 Z"/></g>
<g><path style="opacity:1" fill="#1f3b69" d="M 90.5,283.5 C 92.1667,283.5 93.8333,283.5 95.5,283.5C 95.9038,289.29 95.4038,294.956 94,300.5C 92.6015,299.949 91.2682,299.616 90,299.5C 89.2185,294.083 89.3852,288.75 90.5,283.5 Z"/></g>
<g><path style="opacity:0.198" fill="#bac3d6" d="M 98.5,303.5 C 97.9151,312.644 97.2485,321.644 96.5,330.5C 96.3336,322.16 96.5003,313.827 97,305.5C 97.2784,304.584 97.7784,303.918 98.5,303.5 Z"/></g>
<g><path style="opacity:1" fill="#e7ad63" d="M 304.5,307.5 C 304.246,312.969 304.913,318.303 306.5,323.5C 305.373,324.122 304.373,324.955 303.5,326C 304.823,326.816 305.489,327.983 305.5,329.5C 304.504,329.586 303.671,329.252 303,328.5C 301.519,325.89 300.352,323.223 299.5,320.5C 299.5,319.5 299.5,318.5 299.5,317.5C 300.315,318.429 301.148,319.429 302,320.5C 302.333,316.833 302.667,313.167 303,309.5C 303.278,308.584 303.778,307.918 304.5,307.5 Z"/></g>
<g><path style="opacity:1" fill="#364a71" d="M 127.5,298.5 C 126.656,302.099 126.323,305.766 126.5,309.5C 127.5,309.5 128.5,309.5 129.5,309.5C 129.762,310.978 129.429,312.311 128.5,313.5C 127.914,313.291 127.414,312.957 127,312.5C 125.682,315.406 125.348,318.406 126,321.5C 127.401,319.808 129.234,319.141 131.5,319.5C 131.232,317.901 131.566,316.568 132.5,315.5C 132.263,316.791 132.596,317.791 133.5,318.5C 134.488,319.795 135.488,321.128 136.5,322.5C 136.5,322.833 136.5,323.167 136.5,323.5C 133.751,323.726 131.084,323.393 128.5,322.5C 127.614,323.325 127.281,324.325 127.5,325.5C 130.635,326.113 133.635,327.113 136.5,328.5C 140.476,327.836 144.476,327.503 148.5,327.5C 148.5,325.833 148.5,324.167 148.5,322.5C 149.289,322.783 149.956,323.283 150.5,324C 149.62,325.356 149.286,326.856 149.5,328.5C 149.158,329.338 148.492,329.672 147.5,329.5C 143.202,330.2 138.869,330.533 134.5,330.5C 128.046,328.543 124.213,324.21 123,317.5C 121.38,310.283 122.88,303.949 127.5,298.5 Z"/></g>
<g><path style="opacity:1" fill="#646f86" d="M 149.5,328.5 C 149.286,326.856 149.62,325.356 150.5,324C 149.956,323.283 149.289,322.783 148.5,322.5C 144.548,323.272 140.548,323.605 136.5,323.5C 136.5,323.167 136.5,322.833 136.5,322.5C 140.634,323.057 144.301,322.057 147.5,319.5C 151.036,321.164 152.536,323.831 152,327.5C 151.329,328.252 150.496,328.586 149.5,328.5 Z"/></g>
<g><path style="opacity:0.89" fill="#858197" d="M 187.5,323.5 C 186.518,322.859 185.518,322.193 184.5,321.5C 183.264,322.246 181.93,322.579 180.5,322.5C 183.539,318.191 185.872,318.525 187.5,323.5 Z"/></g>
<g><path style="opacity:0.157" fill="#a3a7c2" d="M 170.5,320.5 C 173.552,322.178 176.885,322.845 180.5,322.5C 178.034,323.634 175.367,323.801 172.5,323C 171.619,322.292 170.953,321.458 170.5,320.5 Z"/></g>
<g><path style="opacity:0.345" fill="#e6d191" d="M 256.5,313.5 C 257.158,314.793 257.492,316.293 257.5,318C 257.664,320.544 256.997,322.71 255.5,324.5C 256.244,320.881 256.577,317.215 256.5,313.5 Z"/></g>
<g><path style="opacity:0.494" fill="#f2cd8a" d="M 269.5,319.5 C 271.471,321.808 273.471,324.142 275.5,326.5C 271.955,325.415 269.955,323.082 269.5,319.5 Z"/></g>
<g><path style="opacity:1" fill="#2d436e" d="M 52.5,286.5 C 52.3146,288.196 51.4813,289.529 50,290.5C 49.9165,296.386 48.7499,301.886 46.5,307C 46.5649,309.225 46.8982,311.392 47.5,313.5C 49.0436,314.622 50.377,314.289 51.5,312.5C 52.3946,307.526 52.3946,302.526 51.5,297.5C 52.675,297.719 53.675,297.386 54.5,296.5C 54.9572,294.402 55.9572,292.736 57.5,291.5C 62.0323,291.182 66.3656,291.515 70.5,292.5C 65.6841,291.839 61.3508,292.839 57.5,295.5C 55.5905,296.975 54.4238,298.975 54,301.5C 53.3333,304.833 53.3333,308.167 54,311.5C 54.3826,312.056 54.8826,312.389 55.5,312.5C 55.5,312.833 55.5,313.167 55.5,313.5C 55.2407,317.237 56.9074,319.57 60.5,320.5C 61.1667,320.833 61.8333,321.167 62.5,321.5C 64.9664,322.634 67.633,322.801 70.5,322C 71.056,321.617 71.3893,321.117 71.5,320.5C 73.1667,319.833 74.8333,319.167 76.5,318.5C 77.2026,320.716 78.5359,322.549 80.5,324C 79.2695,325.405 77.9361,326.571 76.5,327.5C 70.5368,328.53 64.5368,328.697 58.5,328C 54.825,327.133 51.4916,325.633 48.5,323.5C 42.4883,313.508 41.9883,303.175 47,292.5C 48.331,290.004 50.1644,288.004 52.5,286.5 Z"/></g>
<g><path style="opacity:0.471" fill="#7b99ad" d="M 71.5,320.5 C 71.3893,321.117 71.056,321.617 70.5,322C 67.633,322.801 64.9664,322.634 62.5,321.5C 65.5701,321.632 68.5701,321.299 71.5,320.5 Z"/></g>
<g><path style="opacity:0.91" fill="#e8bd75" d="M 365.5,295.5 C 365.5,295.833 365.5,296.167 365.5,296.5C 364.178,296.33 363.011,296.663 362,297.5C 361.501,303.491 361.334,309.491 361.5,315.5C 360.38,319.528 360.38,323.528 361.5,327.5C 361.782,328.778 362.449,329.778 363.5,330.5C 362.833,330.5 362.167,330.5 361.5,330.5C 360.542,330.047 359.708,329.381 359,328.5C 357.364,330.55 355.198,331.55 352.5,331.5C 353.765,330.521 355.099,329.521 356.5,328.5C 353.553,327.679 350.553,327.179 347.5,327C 346.619,326.292 345.953,325.458 345.5,324.5C 354.588,328.412 359.421,325.412 360,315.5C 360.333,308.833 360.667,302.167 361,295.5C 362.616,294.199 364.116,294.199 365.5,295.5 Z"/></g>
<g><path style="opacity:1" fill="#e3b26c" d="M 399.5,299.5 C 398.022,299.238 396.689,299.571 395.5,300.5C 397.224,303.95 397.891,307.617 397.5,311.5C 392.821,311.334 388.155,311.501 383.5,312C 383.167,312.333 382.833,312.667 382.5,313C 384.473,313.495 386.473,313.662 388.5,313.5C 385.939,315.094 382.939,316.094 379.5,316.5C 380.513,319.188 381.513,321.854 382.5,324.5C 381.5,324.5 380.5,324.5 379.5,324.5C 379.433,325.959 379.766,327.292 380.5,328.5C 377.548,327.641 375.715,325.641 375,322.5C 373.477,317.378 373.31,312.378 374.5,307.5C 373.812,312.461 374.979,316.795 378,320.5C 379.165,315.997 379.665,311.664 379.5,307.5C 379.833,304.833 380.167,302.167 380.5,299.5C 384.851,299.031 389.184,298.364 393.5,297.5C 393.291,296.914 392.957,296.414 392.5,296C 389.183,295.502 385.85,295.335 382.5,295.5C 382.611,294.883 382.944,294.383 383.5,294C 390.064,292.576 395.398,294.409 399.5,299.5 Z M 379.5,307.5 C 380.881,304.926 382.548,302.426 384.5,300C 393.083,298.256 396.75,301.589 395.5,310C 390.177,310.499 384.844,310.666 379.5,310.5C 379.5,309.5 379.5,308.5 379.5,307.5 Z"/></g>
<g><path style="opacity:0.686" fill="#ddbd9b" d="M 289.5,328.5 C 289.5,327.5 289.5,326.5 289.5,325.5C 287.5,325.5 285.5,325.5 283.5,325.5C 286.568,322.589 289.235,322.923 291.5,326.5C 291.145,327.522 290.478,328.189 289.5,328.5 Z"/></g>
<g><path style="opacity:0.875" fill="#debc8b" d="M 399.5,328.5 C 399.5,327.5 399.5,326.5 399.5,325.5C 397.194,325.993 394.861,326.326 392.5,326.5C 394.22,325.136 396.22,324.136 398.5,323.5C 401.75,324.914 402.084,326.581 399.5,328.5 Z"/></g>
<g><path style="opacity:0.757" fill="#fad58d" d="M 424.5,318.5 C 425.5,318.5 426.5,318.5 427.5,318.5C 427.5,319.5 427.5,320.5 427.5,321.5C 426.206,327.255 422.873,328.922 417.5,326.5C 420.97,327.125 423.804,326.125 426,323.5C 426.122,321.718 425.622,320.052 424.5,318.5 Z"/></g>
<g><path style="opacity:0.243" fill="#8a98b3" d="M 76.5,318.5 C 83.0426,322.051 83.0426,325.384 76.5,328.5C 76.5,328.167 76.5,327.833 76.5,327.5C 77.9361,326.571 79.2695,325.405 80.5,324C 78.5359,322.549 77.2026,320.716 76.5,318.5 Z"/></g>
<g><path style="opacity:1" fill="#24386b" d="M 136.5,323.5 C 140.548,323.605 144.548,323.272 148.5,322.5C 148.5,324.167 148.5,325.833 148.5,327.5C 144.476,327.503 140.476,327.836 136.5,328.5C 133.635,327.113 130.635,326.113 127.5,325.5C 127.281,324.325 127.614,323.325 128.5,322.5C 131.084,323.393 133.751,323.726 136.5,323.5 Z"/></g>
<g><path style="opacity:1" fill="#d99a41" d="M 269.5,319.5 C 269.955,323.082 271.955,325.415 275.5,326.5C 278.279,326.721 280.946,326.388 283.5,325.5C 285.5,325.5 287.5,325.5 289.5,325.5C 289.5,326.5 289.5,327.5 289.5,328.5C 289.158,329.338 288.492,329.672 287.5,329.5C 284.468,329.505 281.468,329.838 278.5,330.5C 275.129,329.423 271.796,328.423 268.5,327.5C 266.954,325.118 266.287,322.451 266.5,319.5C 267.5,319.5 268.5,319.5 269.5,319.5 Z"/></g>
<g><path style="opacity:1" fill="#e3bb6f" d="M 323.5,318.5 C 323.38,320.199 323.046,321.865 322.5,323.5C 322.942,324.739 323.609,325.739 324.5,326.5C 324.5,331.167 324.5,335.833 324.5,340.5C 323.674,336.018 323.174,331.351 323,326.5C 322.28,328.056 321.113,329.056 319.5,329.5C 316.645,327.75 313.311,326.917 309.5,327C 308.944,326.617 308.611,326.117 308.5,325.5C 315.466,327.186 320.466,324.852 323.5,318.5 Z"/></g>
<g><path style="opacity:0.435" fill="#f4cb82" d="M 383.5,324.5 C 386.303,325.928 389.303,326.595 392.5,326.5C 390.372,327.629 388.039,327.796 385.5,327C 384.244,326.583 383.577,325.75 383.5,324.5 Z"/></g>
<g><path style="opacity:1" fill="#de9d31" d="M 306.5,323.5 C 307.5,323.833 308.167,324.5 308.5,325.5C 308.611,326.117 308.944,326.617 309.5,327C 313.311,326.917 316.645,327.75 319.5,329.5C 314.833,330.833 310.167,330.833 305.5,329.5C 305.489,327.983 304.823,326.816 303.5,326C 304.373,324.955 305.373,324.122 306.5,323.5 Z"/></g>
<g><path style="opacity:0.976" fill="#dd9f36" d="M 427.5,321.5 C 428.5,321.5 429.5,321.5 430.5,321.5C 430.5,322.833 430.5,324.167 430.5,325.5C 426.26,330.29 420.927,331.79 414.5,330C 412.884,329.385 411.551,328.385 410.5,327C 412.365,325.2 414.365,325.034 416.5,326.5C 416.833,326.5 417.167,326.5 417.5,326.5C 422.873,328.922 426.206,327.255 427.5,321.5 Z"/></g>
<g><path style="opacity:1" fill="#e89b3c" d="M 453.5,299.5 C 450.833,299.5 448.167,299.5 445.5,299.5C 445.5,308.167 445.5,316.833 445.5,325.5C 447.025,327.036 449.025,328.036 451.5,328.5C 448.163,329.666 444.83,329.666 441.5,328.5C 441.5,328.167 441.5,327.833 441.5,327.5C 441.5,318.167 441.5,308.833 441.5,299.5C 439.654,299.778 438.32,299.111 437.5,297.5C 438.32,295.889 439.654,295.222 441.5,295.5C 441.5,292.167 441.5,288.833 441.5,285.5C 442.833,285.5 444.167,285.5 445.5,285.5C 445.5,288.833 445.5,292.167 445.5,295.5C 447.92,295.292 450.253,295.626 452.5,296.5C 453.386,297.325 453.719,298.325 453.5,299.5 Z"/></g>
<g><path style="opacity:1" fill="#3c4b65" d="M 48.5,323.5 C 51.4916,325.633 54.825,327.133 58.5,328C 64.5368,328.697 70.5368,328.53 76.5,327.5C 76.5,327.833 76.5,328.167 76.5,328.5C 68.5547,332.568 60.5547,332.402 52.5,328C 50.9586,326.629 49.6253,325.129 48.5,323.5 Z"/></g>
<g><path style="opacity:1" fill="#e99931" d="M 228.5,302.5 C 228.328,303.492 228.662,304.158 229.5,304.5C 235.691,305.726 242.024,305.726 248.5,304.5C 248.67,305.822 248.337,306.989 247.5,308C 240.91,308.151 234.41,308.317 228,308.5C 227.182,314.349 227.348,320.015 228.5,325.5C 229.391,326.11 230.391,326.443 231.5,326.5C 234.689,327.166 238.023,327.833 241.5,328.5C 236.208,329.495 230.875,329.828 225.5,329.5C 225.168,316.816 225.501,304.149 226.5,291.5C 227.167,295.313 227.834,298.979 228.5,302.5 Z"/></g>
<g><path style="opacity:1" fill="#e39b42" d="M 339.5,297.5 C 340.568,296.566 341.901,296.232 343.5,296.5C 343.334,304.84 343.5,313.173 344,321.5C 344.232,322.737 344.732,323.737 345.5,324.5C 345.953,325.458 346.619,326.292 347.5,327C 350.553,327.179 353.553,327.679 356.5,328.5C 355.099,329.521 353.765,330.521 352.5,331.5C 349.167,330.833 345.833,330.167 342.5,329.5C 341.833,329.5 341.5,329.167 341.5,328.5C 339.893,324.059 339.226,319.392 339.5,314.5C 340.222,314.918 340.722,315.584 341,316.5C 341.333,316.167 341.667,315.833 342,315.5C 342.499,309.509 342.666,303.509 342.5,297.5C 341.5,297.5 340.5,297.5 339.5,297.5 Z"/></g>
<g><path style="opacity:0.902" fill="#e3a351" d="M 245.5,283.5 C 247.69,284.374 248.69,286.041 248.5,288.5C 247.167,288.5 245.833,288.5 244.5,288.5C 244.167,288.5 243.833,288.5 243.5,288.5C 238.695,287.513 233.695,287.179 228.5,287.5C 228.5,292.5 228.5,297.5 228.5,302.5C 227.834,298.979 227.167,295.313 226.5,291.5C 225.501,304.149 225.168,316.816 225.5,329.5C 230.875,329.828 236.208,329.495 241.5,328.5C 238.023,327.833 234.689,327.166 231.5,326.5C 235.833,326.5 240.167,326.5 244.5,326.5C 246.991,326.171 249.157,325.171 251,323.5C 252.073,319.916 252.74,316.25 253,312.5C 254.011,313.337 255.178,313.67 256.5,313.5C 256.577,317.215 256.244,320.881 255.5,324.5C 255.167,326.833 253.833,328.167 251.5,328.5C 242.61,330.262 233.61,330.929 224.5,330.5C 223.339,315.005 223.172,299.339 224,283.5C 231.265,282.173 238.432,282.173 245.5,283.5 Z"/></g>
<g><path style="opacity:0.953" fill="#e7bf7d" d="M 268.5,327.5 C 271.796,328.423 275.129,329.423 278.5,330.5C 281.468,329.838 284.468,329.505 287.5,329.5C 283.121,332.272 278.454,332.772 273.5,331C 271.416,330.303 269.749,329.136 268.5,327.5 Z"/></g>
<g><path style="opacity:1" fill="#da9837" d="M 382.5,324.5 C 382.833,324.5 383.167,324.5 383.5,324.5C 383.577,325.75 384.244,326.583 385.5,327C 388.039,327.796 390.372,327.629 392.5,326.5C 394.861,326.326 397.194,325.993 399.5,325.5C 399.5,326.5 399.5,327.5 399.5,328.5C 395.932,328.917 392.432,329.584 389,330.5C 386.784,330.347 384.617,330.014 382.5,329.5C 381.508,329.672 380.842,329.338 380.5,328.5C 379.766,327.292 379.433,325.959 379.5,324.5C 380.5,324.5 381.5,324.5 382.5,324.5 Z"/></g>
<g><path style="opacity:0.839" fill="#e4af7b" d="M 445.5,325.5 C 447.717,326.369 450.05,326.702 452.5,326.5C 453.688,325.316 454.855,325.316 456,326.5C 456.711,328.367 456.211,329.867 454.5,331C 451.167,331.667 447.833,331.667 444.5,331C 443.058,330.623 442.058,329.79 441.5,328.5C 444.83,329.666 448.163,329.666 451.5,328.5C 449.025,328.036 447.025,327.036 445.5,325.5 Z"/></g>
<g><path style="opacity:0.541" fill="#666e80" d="M 147.5,329.5 C 145.366,331.033 142.866,331.7 140,331.5C 137.967,331.494 136.134,331.161 134.5,330.5C 138.869,330.533 143.202,330.2 147.5,329.5 Z"/></g>
<g><path style="opacity:0.224" fill="#778490" d="M 168.5,329.5 C 173.842,330.761 179.175,330.761 184.5,329.5C 182.366,331.033 179.866,331.7 177,331.5C 173.85,331.64 171.017,330.973 168.5,329.5 Z"/></g>
<g><path style="opacity:0.239" fill="#fad49d" d="M 251.5,328.5 C 249.852,329.927 247.852,330.76 245.5,331C 238.321,331.821 231.321,331.655 224.5,330.5C 233.61,330.929 242.61,330.262 251.5,328.5 Z"/></g>
<g><path style="opacity:0.535" fill="#e7b976" d="M 305.5,329.5 C 310.167,330.833 314.833,330.833 319.5,329.5C 319.389,330.117 319.056,330.617 318.5,331C 316.667,331.167 314.833,331.333 313,331.5C 310.134,331.7 307.634,331.033 305.5,329.5 Z"/></g>
<g><path style="opacity:0.6" fill="#f2c891" d="M 342.5,329.5 C 345.833,330.167 349.167,330.833 352.5,331.5C 348.889,332.753 345.556,332.086 342.5,329.5 Z"/></g>
<g><path style="opacity:0.761" fill="#ecbc7e" d="M 399.5,328.5 C 394.822,332.668 389.488,333.501 383.5,331C 382.944,330.617 382.611,330.117 382.5,329.5C 384.617,330.014 386.784,330.347 389,330.5C 392.432,329.584 395.932,328.917 399.5,328.5 Z"/></g>
<g><path style="opacity:0.702" fill="#ecc487" d="M 429.5,315.5 C 434.956,323.521 432.956,329.021 423.5,332C 418.731,332.312 414.065,331.645 409.5,330C 406.591,327.161 406.925,324.994 410.5,323.5C 413.126,323.622 415.126,324.622 416.5,326.5C 414.365,325.034 412.365,325.2 410.5,327C 411.551,328.385 412.884,329.385 414.5,330C 420.927,331.79 426.26,330.29 430.5,325.5C 431.147,324.726 431.48,323.726 431.5,322.5C 431.114,320.068 430.447,317.734 429.5,315.5 Z"/></g>
</svg>
