<svg width="114" height="114" viewBox="0 0 114 114" fill="none" xmlns="http://www.w3.org/2000/svg">
<path d="M57 80.1562C66.8376 80.1562 74.8125 72.1813 74.8125 62.3438C74.8125 52.5062 66.8376 44.5312 57 44.5312C47.1624 44.5312 39.1875 52.5062 39.1875 62.3438C39.1875 72.1813 47.1624 80.1562 57 80.1562Z" stroke="#535353" stroke-width="2" stroke-linecap="round" stroke-linejoin="round"/>
<path d="M87.2812 51.6563C91.4304 51.6493 95.5238 52.6121 99.235 54.4676C102.946 56.3232 106.172 59.0203 108.656 62.3438" stroke="#535353" stroke-width="2" stroke-linecap="round" stroke-linejoin="round"/>
<path d="M5.34375 62.3438C7.8277 59.0203 11.0539 56.3232 14.765 54.4676C18.4762 52.6121 22.5696 51.6493 26.7188 51.6563" stroke="#535353" stroke-width="2" stroke-linecap="round" stroke-linejoin="round"/>
<path d="M31.35 96.1876C33.696 91.383 37.3442 87.334 41.8791 84.5017C46.414 81.6694 51.6533 80.1677 57 80.1677C62.3467 80.1677 67.5859 81.6694 72.1208 84.5017C76.6557 87.334 80.304 91.383 82.65 96.1876" stroke="#535353" stroke-width="2" stroke-linecap="round" stroke-linejoin="round"/>
<path d="M26.7188 51.6562C24.0142 51.659 21.3646 50.892 19.0797 49.4448C16.7948 47.9977 14.9689 45.9301 13.8154 43.4838C12.6619 41.0375 12.2284 38.3134 12.5655 35.6299C12.9027 32.9463 13.9966 30.4141 15.7194 28.3292C17.4422 26.2443 19.7228 24.6927 22.2947 23.8557C24.8666 23.0188 27.6235 22.931 30.2434 23.6027C32.8633 24.2744 35.238 25.6779 37.0899 27.649C38.9418 29.6202 40.1945 32.0777 40.7016 34.7344" stroke="#535353" stroke-width="2" stroke-linecap="round" stroke-linejoin="round"/>
<path d="M73.2985 34.7344C73.8056 32.0777 75.0583 29.6202 76.9102 27.649C78.7621 25.6779 81.1368 24.2744 83.7567 23.6027C86.3766 22.931 89.1335 23.0188 91.7054 23.8557C94.2773 24.6927 96.5579 26.2443 98.2807 28.3292C100.004 30.4141 101.097 32.9463 101.435 35.6299C101.772 38.3134 101.338 41.0375 100.185 43.4838C99.0312 45.9301 97.2053 47.9977 94.9204 49.4448C92.6355 50.892 89.9859 51.659 87.2813 51.6562" stroke="#535353" stroke-width="2" stroke-linecap="round" stroke-linejoin="round"/>
</svg>
